<mxfile host="app.diagrams.net" modified="2020-07-14T07:55:49.947Z" agent="5.0 (Macintosh; Intel Mac OS X 10_15_5) AppleWebKit/537.36 (KHTML, like Gecko) Chrome/83.0.4103.116 Safari/537.36" etag="G46LsZYzUMxreIeL4q15" version="13.4.2" type="github">
  <diagram id="RU-IQXGKUEX-VfI0eRcd" name="Page-1">
    <mxGraphModel dx="2066" dy="1154" grid="1" gridSize="10" guides="1" tooltips="1" connect="1" arrows="1" fold="1" page="1" pageScale="1" pageWidth="827" pageHeight="1169" math="0" shadow="0">
      <root>
        <mxCell id="0" />
        <mxCell id="1" parent="0" />
        <mxCell id="VqpM9B68MgUp_H0zUaEF-1" value="" style="shape=image;verticalLabelPosition=bottom;labelBackgroundColor=#ffffff;verticalAlign=top;aspect=fixed;imageAspect=0;image=data:image/png,iVBORw0KGgoAAAANSUhEUgAAASsAAAB2CAYAAACQw7UpAAAgAElEQVR4Aey9+ZMdxbU/6H9jIiZezMTMm3kR32/E98Vbbb+HbfwAG7BssLEBCQyIRSAE2iWQhBa0gnYJSexa0IYWJCEZgRa0S62lW63uVu/dt/e+t2/f/dZ629/PxMnMU5VVXbdpLJiZH/jhRlZlnjznkydPnjq5VN0fuSUHjmuLH13zzyk5sFwTVsmEM2TBLpmwia7kwinZsFwHtivph0pD+OvQ/0SpVFK8fJ6Sd/heyiM+LNtxiSZMx/cOSiUXJbeEkvtXDA39VVyTfMFDtcEuWWXk63Js2K4l2iLru6J9paES3CFX/BiH1A1j0Hgwbk4VDuLrt0fS+3nl+YxIo/qG2kl4BWbXhlWiPtH7i/qGZGpy6F78qF1Dom1U3yR9iX504ZZcDJVKoPZTnkt9K/iaoq5uH+G2BWTpchmzsg/iWSrZQn7JJb4lrx3E03YicHs8NL27trDP4TiCND4uTRdl+I3MS6vv9XVY1ujufT1qPP8/xhTVdh9n+XaNhiaKdzhvtHyY7kd8QYzoWvyGHLjkoIZMNYAduK6FkhjMJZhDNkxHDhw7M4hEQx9aKvuRHuSO4JQbHL7nfD0lmjAd3RtwzCJ66tpQfbwaVV/eRv3VHiQHTVguDTAakLIeOytuR0A5wtiUc1NttV0X4lfMId3cg7ZbgxhMmXDdIeF0pG7CmNgpaOnf6qyUsY7KWXkD1RGOpVQaEk4m0FZuIw8CNcDsvINcs4lUTRHGgA2THAc7poyDXL2FwSoD1iC1yfCcltRfRPuZf6C/ounIUbmWi2zMQKbKRKHLhCVsh/peOnffWdH9cIev96PsE91uoq6jseh8Rnf9XfEZrZONaks477vDRDqQutdljIb/aGh0nvI6LKtcX5aji3ZWwshNGIODSHQmkc7mUMwUEG/rRzZVFM5KPuUtZFvqcXrNEayfth+3b+aFs+OnP0ViIhoTKUczEQYpBo9UAA1c7yeeuAasTAaXth/HO0+sxZKH38aCJ7bj7IVOZC1XRBees/IGUVBREoelHBs7GQuWY8OybeS7OnF1/T6sm34SNyp6xGC1SQc82DVMYjCpfHYUMiKT+L0O4DYpWnLEXpnSC7eT5Qjj0WR55dwu4uW4KKYd5FsNFBM08H19sQySI+pS9OVayLUbaNkSR9XiLvReHBQPANehCNnEYEMeTZsGcH1xOwZu5GCWDLiujLD44cE4OPV14LfJ0wU/8ET0JnVoDNqo296FxjcHEDsyANOkKF3hVtEw2xPlsz50fUnnEi1PdzyMg/L0a26LTsvXQTrfdnT5TKPnsYwwnzCNTsd8ZB1/0IfrBOlGxsTyOdV5MR89j+kCOlH2OpyOMcoHPfPzeRA2plFjxrN5H3eQXtINlzWcF8ujVDkrX5hg4Fiw8jk0f34Be1d+gZvXmtB2uQXb5+/Gja+7kKfpoePAHLJQ6G3FxW1f4cOFn6G5Li+iHHpyUwNommIP2bCGTPGjiMyiJ/eQKSIXi+i0KYkoHzJhl4oiqqOnvEvTUKOIrqoWVO66hD2vfowp963DkSMNSAtnJaelDvF2HTFtdUmGMHqKnBxYYhpLeZJGTHGHTJg0tS0ZyHU24NScjZj1p4M4f6JdYadpliWjSFXfHqKowxJTJaF8EdFRFErTLI7aKOXpGl0bwgHQ1IqdKumY2m4PEX/iacMVU24DxlARxVIexVJBpKQ7kiXqkB5dC91Vg6ha0YaW410oOnkYpbycrnP0VaLoyUBxiPjkkWrJo25JN65MjaHjLwnYriGm7OZQAemePBp29qFibQsGawtCJzwdlH2oeJXyKJQKKJSKsg+Fw1WRuHJMhJF/0uE4sBxTONUbq1txe3o/Gj/pRdGmttGvKOxC9AtF6yWSb3j8/UFgwXGUjQqd+46I5Im+UA7dk/+Ds/LsRteJritfv77zCOvTp5H2Hc1L6wMxpkdwUtqDd7isUTor+WSj6Z4Nx7ZhJAdxeck+vPX8PlSdb8aNXRVY+tgmXDzcgwIZgm3AyVsoJgtiMPTezqOQkqAtAchBybTh5B04BRdWzoExaKKYsmEZ5GBorYgU4ArnIKYlpg0jZaLIdEUXMgJwRbhq5gZxY/tXWPTbLTj6eSPStgvLJV7kGG24Qp4Ny6Q1EVe0pWTbsIsG7EJJTBvJoQmFGybMNEWPRWSbYziz4GPMfeIYLp6OyU52TSlbtNFEMWnBzLmw7JJ0wqx01VaOBoQelbOia5rGklM0S5ZcZ3LI2Tko2SW4hSGhG9cmrCZc04GTKcGMuzD7HdjJEtwirQNSv7iw8y6MHgfde1KonNyN22u7YfQ6sPpdONkSHFsalKAvlmANlGAlSsjcMtG8PIkbM7vQ9WUSRacg5Nskq89FttZC5pYFMykdKBuo0KFTgpsfErwEpsESXKFfalvIOSlDFUaoHliWQxGgger1MTTNTqJ95yCsuCtw2akSHEv1P0V6BRdOvgSXHnQOOTpbrJVSBCh1KdftaMB5MnhwaLK5jFMxQEN0o8kT9al/R6jryQjT6PcaXo8+xHc0ssRDTT0YApj+Rl5sszqvcjg83PqMQW9j+DqE6dvICvcNYxKRFRmCWDAnRdg2zJyBdGsXjs3ejw0zv0TH5RacXPsFNk35HLWXB2GaNnK9naj+9Ay2z9qJbXNP4PD7NejvpEhFelXimW7owKUPv8aZrdfw5ZaLODD3ID6ZdwJffx5DMk3hvnRarm3BiKdQf+gSjr75GbbOPIAdb57GqQONSA1QNFSCRTS5JK5+dBSLfrtZOKuM56xoQLuI17Ti6kcXceaLGBJJGyXXQLEzhut7z+DLnc1IZopi2mSmUmj4vAKfLTyAHXOP4vCKL/DppPfx+rijwlkJx2EXkIklUPHRaeyfewBbZx7CvnUVqKlMoGi6IrKUSlWDdsiPpiiKElEjdZgrpzy0IE7Rnk0ONesiU2+i50gO/adzyMWLcGxaNyqg7YNBNC5JomlJEq1rBtF/OQUrb8MxbPSdSqFueR+aXsvg9rQMbs8YRMPiJOqXJxA7lEBx0ILp2GJdqutYGo1vp9C4IomODXl0LMyjcmY3uk6Qsyoi120gtncQ9csG0LQ8hbZtSWTbDJiumga6chE8H7PQvT+D5rcG0bRkEG3r0ohfycHMWcKZy7Uv+ZCSRqUiTYqyXNKTAUM5q5bZGbStzqHtnTQal6fQsH4AyWsF2IaNfG8RfV/l0Xskh0K7AzvrwrZIp6aIQD19apGVHABS/9LBkvP0N0lExCvopVP1aYbfs+PllNoSqE8PVm8q7ztpv/1BnjotXdN6r8ijKDwKk5av19Vp7xSTqK9kkwz+cT6ljJPLOOV26jR07Zcr/Wh6Yr7DaFQ9sQauovEoGq7PmOQ0sFQSO0C2VcRgSwcubD2NAwv3YsXvVuO1h7dg54ydWPmn1Zj78Ht4d9FFnD/fg/bWDlzcdRwbxy/DrF8vw6t/+AA113Owhmy4jgnbttDz9XWsfXghXvvtaqycvA/vT/0Qyx5ejKXj9+Lc153IF+kJacCIJ3Ft21fY+Of1eOOP67Dk6Q1Y8cz72Pj6IbTWZ2DYLhzbhF0YxLWP/oIFY8hZNSFjq6ev2iWr/fw83hu7FmvePIfWDlooz2Gg6gY+nrgaC577HLGeJMzMINo+v4Itz2zEa2NWYPn4LVjzxCosu38xpj16CFfO98C1Csg0duDrd45h8ePrsPDJDVj61Eos+tMqvDP3C9TfTMOwqHNoiqY6iTpAdYJYVFbTRdpRJRrXKsHsdZG+ZKN7ewG1i/tROacbTTt7kO7JIdNmoHn9AC5NbsK1Wa24+noLKue0oflgL4oDhhjQnacGcH1ZG6pm9uHm5Dgqp/Wh8s1O3FjWgaZD3SIqNTI2Oo+kUDW7CxdebcG112OoeS2OxhmDqJ7eha5Tgyg6JrI9RTR92otrczpQ8WoHzk1tQPxyRkzByMnQ2lghbiK2LYVrM2K4PqMT117rwOVX21C3OI7+yxkZCSndizZy+9XAE9Gga8IYMFGzIYbG6SnUz06hckEHrs/sxIWXm9GwOoHU7QIyXXnUf9CDytd70LBiAL278shetUVER7oj3fKUmHUuHhbaoJMYfnBW7Fj0PuFr3cGwHtkpUMqOgcs4ZZ46jc6Lr8VyiBZxcz7L19O/yVnZpSFYJRe2mUH3jWrsnLwFC+99A6/cNQ/TfrUMc+9bgpd+MgPTf7Ua857aja3bmtASzyKTzKDz7HXsn7Ibs/+4DTcuZmHQIHVMEQn1nLqO9Q8uwLQH1+PYnlb0NPWhYsshrPr9ZmxYdgW9/RasYho9Z29gw6NL8ebju3BsZz1aqrpQf7IF5/feQndrDibt+pEDFM7qCyykaeDRZqRsirosMUWkKUPdobPY+uh6rF5wCa0dFCHkMHjjBnZMWIdFz55ErHcQqZYWHHp5Mxb+fiP2rK9Ec0UHTqzYiwV3z8WkRw6i4lIfrFwaVVuPY/O49dix6ApqL3ai81Ybzq8/gSWPbsfudyoxSFNI11DTE3qqkuPltRTaqrdQosFruih2Oug7l0fd+92onN+BmzPjqJuVRNPyAfRfTqOYMtDxRRK3ZvSg/vU+9J/KInkzj/iJHAYqCjBph9IuwUjZyDQb6PgkjarJ3ahd0yOioVwHOQTadXOQayoIB1U3PYHG9xNIXMqjbU0KVZP7UD1NOiuTHKjlojhgo/dUFk3zk7g6tQ19Z9hZObAsE93nkrg1swfVM7rRtTeNxMU8alf1o35aEtWrY8j3GEL3coqmpqA8TSCDFbutJoykieoNMdyemkDNjD70fJlBz5Es6uf04/rULsT2JVHIGeg+lULjsiTqZg7g5swe3FjYjsbtPYifL4jpLu0qBh3U8LURMahEFCOPSvD0Qw4aSU/X/j1PndXUUk1fBI0W7chBGEEjdlXpgaWViYhaTR/FNTuBETB5sgjj94NpWLsVTqEL1W/SWUXrlXRJtEwj6uk8CPdQUMc+DeucU1vwofLhNEqXIXleZEXrExQpGNkMOq414siUj7D6ub04ue8q/vLmccx7aB2+3t2M+lt96IgVkTHlOZ9MYz2Oz9uPhY9vR9WlrFifcWm9wbbRe7ISm36/Fm9NPIr620WYVh7x61ew45n3sGTy12iNmcj39uL8qn2Yf/9yfPJOCzKDShmGCyPrwDRokZymeVYwsjrahJTtwKSFXpLnumj4/AI+GbcJaxZdls6qlEf6RiV2vbQeyyecRWfvALouX8fK3y7F+pmfo73dhGU56LlYhd1j38bMRw/j8oUO5Pv7sHfKO1h0/1s4tqUJt463oO5kM66/fxFLx6zH0lcPo62jgLyKKsRgFVGF3DAgpyUGlWFj4HoeresyuDV7AJemtuLagnbEdqaRumLCiNF6XglG0UDsSAI107rR9HoS8eNFFFpsmAlXrGuREyqJ/qH1Nwddx1K4MbkDte92wbQtscZDa3u09pW4ksHlSa2oXxRHPmajZA8hcSaP6hk9qJrWhc4TSbkJ4ci1MFpUb146gBszOxE/lxXRC8kyiyaat8dxaVIrWjcNwIhbwhkOVOdxa0YfLk9vQrq+AOpraqt0WL6hisGrnFVxwMTN9e24PS2B2rd7YaUdGEkLsY9SqJjcipbNCZiWCTNXQqHNQfJCEa0fJ3H9jXZcmdqGutcG0bY5g8G6oogwvacz65mdg3IMbPwiZRpOiYauw/eczyk7XaZTg9Cr5/HwHYtXJnAEZQScHfPklB2ddu/x4jxK7xST4iFskzFq7RX8xTRuuLPyHChhYBrGxjwo1fUUlsf0KhV8RqJRZSxPOSsXJTsPoz+OxK1OdJ7vxKcTP8SWiYdReawRXy4+iaWPfYSbf+nFYJKc1JBYb6JF43RNFY7M/gRvPPoRqq9k1UAgZ2Wh56vr2PToJmyZfw5NMXJWWSTrKvDphM1Y8vJJNLcVkW7qwGdT38PiP3yEr2jx16JISR5GpXNeYveNzuVQXj4ppoELx7wr1qxSdgkmRYS0NuK6uH3kPLaN3YQ1Cy+hrdOESzthlTew88W1WPriGXT29KH9xHkseuBtbFt9Ef15U6zfZJobcHbWu5g37igunG9Ftr0dHz2/BhPvmodXHt2A2Y8txdxHF2PhI/Mw89fzsWHBUbTEyFnJdQjaqXKFQ1XrEmo6ZGYt1O7sxNXJnaifmkTn0jwShw0YMVcccqWdP7H75ZgYrM+jbkU/vp5Yh6uz21D3Vj+6Pskh22DBKdD6G7WxCKtgofVQP65Pbkf1OzEU7TwsuyjXxkwbXV8NoGJSO26v7YWRl2tQ5FTqF/XixowusWZFfGgRmw78DlRn0bC4X0zL+s/Kh03JcWDkTTRvTODCpGZ0HEyKhwXt5GYG87g5pwsVU1qRqMzKTQgR3VKf0Y6e3GVlZyV2JdWaVcPMBJq296FoFWAYpuB7cXITWtYnYVgmDLE7aImDv8VmF/H9RcQW5NAwdRAVkzvQcLgTVo6eumrdRw1efjqXSwUW9QRnmu86j/lGpd+3rO+afxS/qHaNlBfF407zfkRRAC3+usU+tJ86jU9nbMC6P63CjJ/Pwav/tQxLfv8W5ty7GC/9/E0sfHYXTh5txYAhn+Z0RCFTW4XPX9uFeY9tQ+VlWrOiMjq/ZKKXnNXj72DzgrNojNE6Vh4Dt65hr+6sGjtwYPK7WPrIRzj11QCKFp0l4tPTJhzaPQs5qwW/fQ9HObISZ4nkulH90fPYMW4z1i+6jLYOOqqQQ6qyCrsnrsfiCWfQ0RNH21fnsPCBldix5goSWRumW0S2tQnn530gdwMvtCHT0oL3n12FN8ZswKEPKnBqz0V8vesizuy5hEuHKtFY3Yt0xhEHY8WWukORT0kuONP0R0QbDqyiiZ6zadQvHkDN9ASqZnWiblU3uj/PIFdrodhjiUiJDsHZhoNkZRGt25NoWJ7ErdcSqJmeRP3aPiRvZ+XuXYl2NW20fRbHjcldqNncJZwVLYpTH1KU2Hk8gauvtOP2BnJWpmhfuqGAhqX9uEEL7F8NwnALYkeTprEDt3JoWBLH1RkdIGdVJEdGi/R5G80b4zg/qRldBwflxkTJQHawiKo5naiY0ob+yjRKYs3IkH1GDlAdFpZHDSjypd3AotgNbJw1gNZdCRQNE0bBRuf+QVyY3IyW9QMwTBNWzoTRayN7y0LXZ2ncWtGNqhmdqJ0eR8OyBPqupodFViMNGC6700HCfDiN4sdlUWkU/Z3khWXcCa/R1g3L/Kb70fL9NnTKWRlwjQR6qm7g5JodeG/cUsz+1UosfHoHtjz+Nmb+10IseXYX3n/7FK5d6kTKkq9kFMlZNdzEsTl78MbYbai6qp7MND2yLfSduIp3Ht+ITcpZWeSsqq8IZ7X45ZNoaSsi29mDkws/wZIxG3B4Zz9yBi2QFlGic1LkuCw1+B0LRj6J62KB/V0cOdKCtG3JRVd6arpDaDh6Hrue3IzVCy6juaMIy86h7+xlbHt6DZZM+BqdvQl0nL2Ct36zAu8vOYeeQUtEVoN1dTj+8juYPfYozl+IIdfViR0TN2D5ox+jobYIy3TFAjkt9IojBw5FluqVEeGYOMKi81JqwV04LRd2xkX6poWOAxlUv92Fa6/FUDmjG/VvDCK2KYPBW0XYBUesSZXMITjpIeQbHHR+lkb1rB7UTO9Dy5Ee2EVyrNJZ0c5f5ZRu1G4iZ5VDkaIZCr8dF31n07hMzmplH4yMIaKVgaocaub2oIoW2E8kYYjox0GhlMdAbQYNS/pQMTOG/gtpFEtZsQNnFkw0f0DTwHa0fZxAMWfAcAoYbMuiemYPLk9tReJWVh51oR1EOsCbc2H2uLDTdIyCdOIqZ2Wgel0MwlntTMAwLZjKWYnIagPxLyJRkUP7pgzq56VQNaMbV19vR+3abnQdzCBba8POyamrN0Xi6QdPJbRIKzBl0spF3VHe04D06Em/EfUCNBHlXIenPOXoy+VzfU4DdHeIiXnqKePU8+hal1uORtQpgynMT/Ck6eQIOuMylienga6NklNEyS6i0DGIyysO4/1XT+DssXbcXHsBa5/ZhasnkshmHXGGyaTXUUw692MjVdOG43MOi8Xx2xey4iyQUyyJCKnnywpseXQztiy4gHqxPpRDouoiPn3hXbw58TRaWg2Y2TRaDp7DijELsXLCUVSf70cxbiHZmMPtC51I9Bowben8jGIeN3d/haUPvI2tb11Eb0sRRorWteQZqtiFqzjw3Ea8+dznuE2nsVMmKjYdxtL75uHN58+is28Qibp6bH1qNd56fiduXkzBzNpoPHIZ7zywANMeOYxLF3thpAdxdvU+LHhgETYtPIum6gFxVihRN4DKLxrQWN0NgzDRYAmt14i5vXhlhI4q0FRLvb5iDaHQZiNxrIj2tVlUz+7B1WntuL29C9muvFg4T1wqIF9ry13DqxYa3xjArWlxNB7qhlWkc1qm0HvHFwO4+moMdYv7UIzZMOO01V8Sr7Wkawu4OK0Z9XMTSF0yxHmtnv05VE8lx9eLrpO0G1gU55nslCvWzmKLs6ibFUfiywKsQRdOriTWrNqP9ePq5Bhuze3DwNdF5BttccShZmocVxe2IhcriMiX1jrNjIX2v8TRvDKD1k/jKKZMNXU1xa5i7ZoONM4cQOuOBAxDOatPU7gyuQ2tGwaQ7S2g+r2Y0MmtOXF0bsxh4CtTnCtzzSHvcK8YNErvpHs2aE6pnAcWp1F0o8nzZIUHlCbXkxGm0e+1NSmPXuNB2Ecjy6PTedP138hL6GyUdT3cjDWMIXwf4vttZJVrj3JWMhogomxbH/a9sgnb559Dza0YTiw8hhXP70JzPa0pDImpjm1ZaLtQixMb/4KDcz7Est+9hRd/vhgbZ36J/etPoeJUO5I5C91fVmDtH1Zj/dxTuN1mwLLy6L95BdvGb8D8F/6ClpY8HLeIYkcPTr21ByseXoVlT2/Hx3MP4r2pB7Hp9WNorMmgKBZqHdiWjd5r1fj0xXfFgv/aKZ9h1/rLqL2RFM4j19WGa2sPYt6Y9dgw7SC+2Hga21/ahFm/mIO544+joy8NIzmAWx+fwLo/b8baiXtxeO0J7Hh1M+be/TomPrwXF892waWNgBv1OPT6Viz47WqsnrALW+fswXsTt2PF0ztwYn8dcgV5yFMoVkVT3jWdqRI/MiSaoskFaLFIbjoq2jLQuTstFsuz3Xn0fJ1GzdIe1C3oRd2KHtQu7MWt6QnUruzHQG0ONh0YpYFol5CszuH66zHcnCpp67f0oON0AlbWRjFhoWVrHHWvJVA1vwf1m3txe0Ec1ZP7cGNaBzpOJlEs5NFzYRB173WjdlkPbk3tw7VJnahd2IPbm7vRc25QTCEzsTya1yRwbUoXal/vw+0lPaic1oPa2XHEvhiAnaXjIdQ2C4V+A1eWNeD6qwlcmH0bmY4ChqjfHBOFhIXKNa3CWTZt74FlOLAosvp0EGcm1aNp/YA4ShE7Moiu3Wlk6ukVK0cdGKWDobROSroM7hyRvmkQBX60q8ZHJ7wdthCNWlMM1IvK47NRIRmMQ9RnWSEanbegZ7pymEYji2QwH01eAI+iGZYX1b6ovDI4AnIjMOjtpetRyS8ja1hdRedFVnI30EK6oxdHV+7H6U/r0NXRhfMfn8f+LefQ30fOyhFTDds0UbHvBNa/uApLn1yOxeNW481xa7Hwz+uxYPxaHNx2GQO5AhKVDTjw5gEc2XEd3bSb5BSRiTXi+JpD2LnhMvp7CuKp4Bp5ZJu7cGbzcaybsAWLnliFFRM+xM6N59HdRYvQ6glqm7AySTR/cQ3vvvoeFjyxHssm78TFUzEUHRuukUW8uhmfvrEHS5/ZiJWvvIdDq/+CXQsOYDutUSXz4lhFoSuBcx+cwNqXNmHZ8xvx/qxt2PXGfmxZfAZ11X3iNLmTpyiwFYcX78HK8eux8Mm3seLZzfhw0THcvhGHKc5Z8VPNd/byPUR5QJRep6EBRXnylR8ZHVE+TSnphDr9rKItHFLtlh5cmlOPszNqcX52PWpW9iFelRen7/l1E3IOdNK8/fAAri/sxPmZNTgzpwa39raIk/80/SrEbDRt7cWVeU04N6cWN1d0oXnlIG6t7UT8ZgZGroC6z2I4+Xo1zs1uwJWZraiY1YaLsxtxevZN1B2IwcgaIlJLVRfRuDmOK6814cKs26hc0IXOo2kYA3R2jE7eU9stccarblcM1XP7UP1uDPkEvSpFmx+miF4bPuvE7bVxdJ5OwqYpomEjfiGDilXN6Dg0CLNoSX0MuBhyhlSkoTZbxPuP5HCkw/IeCvT09h4U3AdRaRTdt8vjASjlRdWNkst5HDnxPaVRPEabJ/n4mEZb75vpJM8oOh+7L9fP437wy6J4BPPKy4qmCzkrB3bRRLozjeyACcs0kO/LI91fgC3OuMhT57RNnekaROfNLrRXdaOjpg/dNf2IVXWjrbIbic4cijRNyhaQ7kghnSjCpFdKSvRKSRaZ7jRSPQVYIlqgtQ0Tjl1EMZ5Cb10f2iu70VkbR6KHdo3oVRr5np44WU7vjmVziDeSvB7EahJIJ6ic+NBCtYFULIWO6l501PYh1Z1DqjuLZHcBFp14J4drGyjEM+ip60XsZg/6mpJIdWUx0JVHIU/rTuQcacplItuVQPetHtFOgakzi2KBT6uTUomWO43Offnb+DRt4y19U83PqS2ULxbE1fuJgkfBRaHdQqqyiIHLBSSvFpBvseQp7sAglSfHrZSLTJ2Bgct5DFwtINtO71DKV5hM20ax30aq0sBARR7Z2yaKrQ7oNDpFLLRTm+0wkLiax8CVIgavF5GuspCsKCJxOY9czBTHFGgnzzEdFLpspKqK4sxXptaElSVdy2kuOys6bV7ss5CtsZDvVCf1RZ/QmS4HRpxevrZhDmi6GqRI3oTRT3okvRjynVB9IKvNCtKj7qzI0P2BwTzLpUHjL+9wyroqGCUAACAASURBVNMFZUXRlZNN+T84qyid/03OigeUGOwcaqvtYTJGb6vYO60sO0saD10HO4NB0C6X38lER2/a+6e+PbnqzXvxLhjtjImvLegGoSIrYcRSHjWe5QhFCIfhlzFvomH88pp5kRFJByd50bV8J004DzV1E3ki3+dNO15MI2RrWEiuWMsSDkbWkVj4PI78qgBNa2h6yK+RcJvFziC9z6i+8cRfJ2AcQq7YbZXOQtATrYdJThfptSnKozNojJFTr09EPfkuqKSVcrlcpsRHtUP1jZCpHAq1jeyA8RIf3mSQWOWhXVmueHm6oUhd4aO1EGEb1D8yIuW2+im1TfYTtyWcyr6WNHQdLv8293p91km4vk4TLtPvaRpF9+Xoy+XrPML17xRTmLfgr3CGy3R83JYwjajvPbiH212YfiQ+Oi3TDVuzIsOwxDqLfNtfRAFkRJoBkZLkOgx9BYB+RvAnvnrAg5HeF5RfKiDDlgOUIiHiL1/qFYtv4uVf2vEyYTpFwU84NjZslQpnQPKFXCmb6ETH0eAX+K0QLopkaFoinQx9DUJENhTheNjltTcwSJ6QIzH5dIZoD9HpxuLxVg6d7yU/2XHBPOU0uV30hQfXgOEW5c8piBPy8nUdchYSO+OjfEEr6Ipyp1BFO6RP0qPHy6WptDz/xPyoX/1y+RUE5kdtFXKEw7YCdERD/em3i/VA/S15evXZoQmnTMcoyE7ksRSqT3SURz+WRynr1deXb/hRebphR1+z/nw+Pv7R5TEmvx/0et907bfJx3cnmKQ8H9Od8ArWHY1+fbnD2+2XBflG6a28rGBdpvuR7DQqZIXKa0+pIWch6MVA1hlynRAfsXPAfPVIiOmpsfq1fq/yh8mXT3K/HtEFeXPjAjQhPkQTScd4eNeD7/U0xEvoSg3sgEy1+CzzItpGPKmeN/hZF3Kdi5yqqCvk+fUZN+9G+jKJxqfzdmCEHC2faLQ2+NEby5e0LIf5i29N6XrQZAla5qnlc9tF9DUsn+WFUo9PKD/Uz4wrmOo60Nsc5jWae63+CJiC8qP5+rrUeJbR5cj8tPp3iClKjo8z3A5fbnka9QAOtCvMx78fkY/Gg+mGOytSgFACgVNG7eWRID+PmAhGXM4pG6W6Z2H6ABGKonIPVBnnwTScsnyqx3mcKl6RmJhGpeWxK76es/I7ycMa4sU6GT6Y5U6ZrBfBR7XBd1ZlaES79LKgs/F1STQaHeNUevHwh3QYhZtoud849etzv2myQjyDtNS3qg6nUZg4bwSa8lh0TIyLUy77tqlWfwRMwbZGy/Bxazy5vSItlx/mp9HdIaYo3D7O8nLL02hjMtC2MC95PyIfrT7TBZyVZ+i6EvRrjYHfUE15Xnk4L3wfBZ5oIuhYPqdqUEQNMD8vgo+HjWWXkRegK0PDWDi9Q0yjw623Sb/m9nCqlXn4uIxTjSYQ/XG5TNlI/L4Olgf7K8gzWGekMuap0YyAe3SYmBenLOPbplr9ETAF2xotw8et8Rxma9F1g/y1+neIKchXyvZxhrH4csvT/OCstKkQKVBGFf4A95Xq5/mKjeoQmUc030RXhoaNhNM7xDQ63DpW/dpvv98ulefhG4HmB2elRfcj6GmUuixnb/4AL9d35fK/P0xRWH2c5eWWp/nenRUpSf54xV+C4Ty/nOn0lOuMlBdFo9PTNdFE0TEWP+WPl5Eyw9hkXhSfMG05eTpdORofC+voTjF9M269Tfq1jpeu9TLGORKNLIvSpTyAGK6r3wdlld950+n0+vq1TjMSbt4Z0uvq18SHeXGql3+ba73+SJhGw5Nx6zz1euXydRq61unuFFOYt+D///fdQG60VCh/5kE5AnrXJ7R+IejFk0YZdOipQwr1aGjthxTgrQFFrIUoGtERipfExFg4VU5NfJVT7SRSKK3qyLUf/5Rv4MnB8omW5SlcOp0nl2lo+3sUmOjTGBQh6fWJr4eJdaKH/gqTR8Onm5W8IC7fIUbqSfEiXUsMwW8LCV5M42EhfdJRC97d83VJhhv4btHfgknZTQBTWJdRmNQnSMK6pHYHMOm6VNfC9sSA8+2O2u7xYky8eaGi4gANY9J0Kd5P0/kwjafLoAzWt0h1XWo2F8DkyVIPjnJ68ujIzmmManK/ARPJ82XKul59VZf1K3HLsS9p/DHMND4vxhC0ubA8Se9jID7RNIpfCNOPhntXNljVGM9I/cbJOvrT2G+UbKROy3RRqV6P6uj11DXLF6mkoQbKAabT82K2pAnyYjk6PdNxWVQaplH1IzCRQ/tbMfn1wvJ0TEq2GJT6dZiGeWiL8AG9Er1GI45aaM5KcwDSuJhel8PXOo6RrnV5UXVZhqQrL9c39Oj+1fnwdZS8cliZlusyXTm54XYxvc5HXke3Sacvd63z0uXpmKJoOE/nS3l8z2kwz8fJ9Tllel0u5zEP3ea0vIDNUh1Zz5fFfPwypqGU6X5YYNcGZ/hpIhXGiuROY2eupaR8z1lpdIH1oAg+SrYf2ZSn8TuPjSAox8eu8WCnOqyNGk0AY5AnG4nPO1j+N2EahoV5aphGwD06TMyLU5bxbVOt/giYyuvHl+fj1ngGdFEu3+ch5Wh0d4gpCrePs7zc8jT6mAjXH34/Ih9NN0z3IzHFUY3mTJ72iMawQjglJnQdrqMx94xY0Qm+Wh2u6ylLhXtePZYRleqOQWFgfjzoPXk6JpavYYqk4zrfMSbRNsarySDsw3CH6QS9ZqRKB57+qFxrF+ujbKrX1+QH+js0vfB4MfaRMOn4WY96HuPV0xCmABavrv+UjcZDA8KnCfSvx8O3XU9/ehljYtyinVodpqVUXGvRBJeF62i6LIdJ5HM9xhC+Z0wsh1Omo3uRp9lKFA3Tc8r1mD/nB1LVTp1G583XnFJd5hvgwxh56ujfD+tzVZ9180NkFVZk4J46Xet4LuMO4VQNNHY63iAIRC0RfBQ/v155miCOUdJ5+MJPtWB9X36Qjo1Eb0/wWuejXwf5BLGHy/heqz8C7tFhYl6csoxvm2r1R8AU1Em0DB+3xpPtSaTl8sP8NLo7xBSF28dZXm55mpDjCbQvzE9zVqOk+8FZjagoMgzNOJiWjYTTH5xVtJ5YX1E69MrYiDU9e3rlMk79qClqoMk8vc80nsPkMc+RUq3+CJjKY/F5+wNc4xnAVC7f5+G3T+XdIaYo3D7O8nLL03zPzooES+H+VrXcZSDl8Y6DRqPo9Tp8LQc20fqr/IJ/YNU/yEvIIJ6Cxt/JYp6MxUuJd2AXxOfHIXBg90kMFEkjsDB+kqdwMW7Gwul3isnbNZJ69WTQrpQwOtaB1h6FXdLqutGvVT/p7RI7XSP1Xbg+GabPh6/lro+vO87nlPuZ7oPXoTZqevb6lTEybk0/fl8HMZEMHRPj0FOBQ+wG+vqU+EKYlHy9TMcmbEXHLWzO7xvflsK6DMphbB5unaeOQcv/vjAxZsbEKedTyji5jFPuX52Grv1y1VeanpjvMBpVj2SNRMNljEm8yMxCvVQJJM8bNhwaWMyEQIg6arAxKJFqdEzv8edG8iBVBsv1PL6es/RxiLJvclY6P20Q6jj0ayGXHcP3hElvE8tjDJ6z8gYudbzvQJie6QK8Qng9np7uggOMeRCdz8eXxfnhvpf5Pt1ImHweUjbde3kaXk9+OE8zeIGD7cVrE08h/MHi4WGbVCnj9uRzuZLpYaD+13B4mDkvAhPzDKeMhfPL6dIvHz6OvDKWr9kGl/HYDOMW8rV6jIfouK6Xp9bTKF/81Njyy30dB2m0PmWdUqr0xLIC8kKYBG0Ik6T3fYyOyXNWHhACPeQrj6+5XAfxbfOYntNR8aLGU4MUJlGX81jBKo3ix7JGm0bxGJbH8r8jTMP40+CMcPajzfPaquMbQUdl+Ybql6UL9YMnPyJ/VDw0ucPoWfcRvMvJHcbjb9HvSJi+AYuQr9UnnHeCyWun4nknvIbVHY1+Q23x8JAevg2mMrLKYYreDVQHQcXTna+FV1RzUrpW96x4QevNwdVTStF5NDoPotXuBY33dNPKWD6nRKMOYOr1ST6/EOzJ8/CEcGuOwOPBtN8TJv9pR9GJ+in9DMPNGJhOpEqn4WumVbwCbWedhWgCWEbaDSRjInmKt4fbw/UNmFTdACYdS4C3xisKt5DJT27NPjwsrFd+4qsoIiwvIFPrB87nlJ/4XD8KkyjTcDMtY9LuaRCT/iJ1Ec5nDOH0TjERHg2T15+cT/y5z7kNXqraqdPovPha1xPzZR5Mo1IhayQaVcaYop0VMw0rSxfKAkWIzobCadDIvQ5ivpxq/ASNmIqNYECCXipN7GAxH5XyrpYnj/lTSjTaj2gi6bgOG8Z3hCngIDQZhGkYbm4X04lU6ZSvwzSqbYE2MU04DT0UWL7nmJRcwYuuFW/PuFW5nCpofT5MjqwbwMR1h9FGDPoImgAm5hVIR+ms9Dosh/Po3uv/EexR1IvArfNR14w7oAtNLpd7OtbKvH5hTFzGqS5P5Gm2EkXD9JwSjfoNw8E0bDOMgfJ13nzNKZfr98xL5XmydBq+plT9mO6H3UBWYGRKna51PNPoChV5mgNlGpX6jiCCz7egCeIozytAxzhDmAI0geMV7HhkykbiDaAR+YwS0zAeLFOrPwLu0WFiXpyyjG+bavVHwFReP748H7fGM6CLcvk+DylHo7tDTFG4fZzl5ZanCTmwQPvC/Hj9bHh+GBfL++F1mxEVSoahGQdfs5GIVNF4EZJOz1ET8wmWsfFJhzYSDXWoXle/1jtb56E98QN1mZdP6ztUnZduTCPJ4zo6Tfjal+Ubok4TxMTGGWyzpClfpuNg3pwyf50m6przmJ7r+9FaEBOV84/r6Dz862jczD9cV8/3efiypEyfZxQN54V58T2numy9nVyfU6bXaTiPeeg2p+WJMca0lMprH//wMqahlOkCzoq2J4UxiYGnmPLA9AzeFyYZqTraoJd8GAAZPdNwXjiVND4dN1Tz1MoxEA2B9wc4K9N3DGH5UQOE+fhlzIexjR6T+C6456wUH6U3D6e3Nc9yOPXbUh43Ow6JTdL59f02UMdqXz8Y1ndUJ0RT9t1AWh8K9xvLlKkvS+9jKaMsJs9OfD2HMbFxUr7PR/XHKDCxfjiVPHRedM33nI6MOxqTrstwfakjls26LIdJ16WPLcxTl0fXjJ1TST8yL6blVJeh97mOX+9fnSbMQ3dWVMY/lsH3sp7UCefpNHwtU9Zd5G4gGwgpQ/+JfDVnDeTToBA7HARWKdGb20owUrGh6zK8dN68CEdfmpQ/UhbJk9919/IEBqIJYhZyA9g0PoJW3vP82FewjnU4X/lHCWwwst2sH5nqelBKF06W8UmebJhB3DpG6bBlO4bjINzBusyf9KRdh/pFrxPFQ+SF6peli9C5zl+/HhUPTe4w+jI7SLqM8PUwHsIehuttRLqRMH1D+wVfrT7hG1GWxi+Kzmuf4hlF8zfnjUa/obZ4eAj3t8FURtYw7IpO/mEEKU8Lt2gg0oCTqSrjJxE7IW2QEHMxQNVTU3QGXXv5auAqHoHykJPhOuIzuKqMnYDnmGg3UDkrQa/o6B9jdMUxL66v03oYxOdR6E8MZJv1dviOS7bPq8PtEinrTv0Nl/ieuvwHG0+e2KnU+Afqk56lM2PHFcDN//hCuhPtk230eKu2y7Kgc6JdU87X6XUd0bXYjdT4MK3/oJCyOZ9ToQ9Vb6RrXV5UXcrTacrJFTSagTMvPWU+zJPLKP+brrmc63KdcnJZlk6n89Cvo9rE9Vge0+v5nMc0ukzmGUXDeWFefM8p8+U0iieXcco0YR7iXtmcR6s55mF5ob6k+sxTT1memAaKf4zRnBUzFf8NJ4xRDjSOJrxBJQYQTxV0h0VTG21wBq55YCp6b5DQ93IieFG55vhkg3jKp8kU0zAanP6ADTgeNdCpbX77uH70J1LCzsprUwCTdFbEk5yOcLIaXiFP3Ov6CLbJ/+MHRaP4iw7zvjXFDp9k6HrS+RINlfmYpA5GoPlhGqg9aMvrSfYF9Vs5mnAZ25bM56lMub7z+y3Mp5w83x5Gj4l4MT9OdXn6FE/Hr9ucThPmoR4IgYcv01Cq/+iYhGargTrRmLzdQO9/3cTAor+2smEWBtCdaEZLKo647aCoBgIPWkrpR39/Rf+aTD/5P3i6s5IAmb/rSIDMw3dE3BBWknQgFC3Jvw6n/5WTf9nkir/6MtQ90dFP/nUY8fX+f06dvaL6hE3IpL8AI8flmihRHduE4ZRg0H8IOpb4HzvxJ6fi/+ykU5D1VH1PqVTmv2rhlEoYcgviD1JNdwgWlQlaklVEySmIPLtUUp3GH+qjdqs200cFSzZK9Gewdh62ZQtsxC+gL8/gWFd6qvFjp8r8vVSj+WE30Ne/px/Wp6anUerS68sQr2hnx3Io1WSF6gZ5anR3iCnIV2LxcerYgvjK0+izqXD94fcj8tF0wHSes5LA6U8xiakFx86jv+0Mdh1bi43njuHcQBIpd0j+gSWH1MRQ/YcgOyo5PWOFOtIhuEXxn3IF14XhDok6PPg8ZyR4ynpiuqecj/yfQXZY9B+E7LTIcamfcEDKWYkOlNfUDvovO3akUiblleDYGWS6a3Di8D4cOlOLeMEUfy3v8p+Fek8B9Weh7Oy81xNKcEv0o6eJi5KVRW/NBXx16jyuNvUhY7sYKlkoER9rEPH6szhBZQ2dyLuucEglqi8cnpwGif9mdNLI9jfg9JGd2LBuIzbuPo3K5n5YAWNm/Q43gIDRj9KYv3k3MEoO5ek49Osw/UhlTKvRjICbDTdqoLEN+7g0nprxl6/LWDjV6o+AaTT8fNwazwCmcvmMhVON7g4xReH2cbI8Tn255Wm+d2flR0EUCbjiX3otONYAWq9vxcy3xuLZj97GzrY29LkUPfjhp/yjU6ovp2Xiz0Zd/y/TyWiGnCQGB2+jqu06LvV0ImbQvzKTAnznIqIxtfjMCpTREa390B+W0nqQxEmOhyIg26H6FFGxw5KRmIigKEJSmOjPPf2BTvkUCZZgF7oQu7wX0556BM++sQON8Yz4C3vBW9SVnSQjRfrTUGoj/f08ORYVFVGkqdZ8jMQt7Fw6DX+e+Dp2nGtE3LSUs7JhFXrR/OUGTHxhMmat2olYgSI9C64rnV1JrHPJiNDNtuDC/lUYd//P8W933Y/HZr+PoxWtMDTHUN5YyKC0n2fMvqFJ/Wo0ZaeByoGKvgrXH27AvoOgMp0+KIv7N0jDdSSt3z6dj6QpX6Zj4nqcMn+dJuqa85ie6/s2H8RN5fzjOjoP/zoaN/MP19XzfR6+LCnT5xlFw3lhXnzPqS5bbyfX55TpdRrOYx76NFDLC9gQ1ZH1fPzMxy9jGkqZzluzkn/5TVELTV9clNw8+huPY/3WOVhwcBuOd3VhQA0urkwRBc216Vcaoje2OZKigUf5JfxPM4a6W5/gzY9fw+vHjuB0IoOhIRqo7FDYWSqgPMDUH3/SH33aJGNoCKW/luD+tYRSaUhMU+lt7CHKo3Uq5cxoOlYaKol8Qc/zYnJwpDT6S/XSEIbcFDId17DnvTXYvOc8utIFuI6cZlo0HaM3wqnukIOhIVfKpnu1gC50UHLlFNVOou/GLjz70MN47JWlqOjJIyuiJzUVtAaRafoCc8Y/iTHjpuJESxaDTgkl9bfs9JCgqM91CzBi57B+yu/xHz++B6+t24ULt3vRmTJUuTQcKTtsRNI4/LUP3XDYGCJoyjqrcmsTLJfXMSRvKZfLRpL3zTSefQWcnpTHaz++MTM/mbI9klMcCZNfP4hVd6a6LqMx0UDidReSr/PScfm6LIepPB+dpy7PH8RBuTpNGBPxYn6c6jQ+Tl8Psh0+bp0mzCNsc2F5fC/rffs1K57eqLUksYZTSCCe7UB38jaqOq/iSrwNLYaJvFhvoVDPQNFIoD/Th758AgPFBHqyfejKJpCwDLG2VXJyyFlJ9MUv4vj55Ziw+gk8vWsLtre0oCPTg658BhkRMcl1IVKibxBSQXIAF2GbSaQSMcTa29He2opYdx8Gkj3o7GhFa0cvEjkHJjlHJw8z1YuezhY0N9WjvqkJrV39SFIk47hiwJdoSprrRnfsNlqab+N2fRMau3LIO+RYyKE5cJwCCuk+JPq60JNIoLOjBc2NDWjp7MNAgf7mnQ2UOsdCIXkbZzZNwi9/8wLmvHccSeHwKfKTzoqiQLvQii9WTcXDYx7Fgh3n0ZI3xDqWGFQORXtEm0Hm1mEsfOI+/Ox3M7HvZrecLtIfUainE+kooCdy7tpPlPG9tjNTlkasCYZ2L1V93oXR6+rXuiz9Wqeh65HKmDZAMwLu0WBiXpyyjG+bBuqPgGk0fBl3gCf30yh1RHIC9e8QUxRuxhku0+WWoxF1ymAK86P7EfnouuGjC+xBBRiaIhXjaK7dj/cOL8Ebn67Awn2rsOb8X3AmmRSRVYkGtJNEVdUBrN2zHKs+fxdbz27DW/tXYv7+Tfj4VhUaDBOW0YDK+k+xfPfrmPLuBDy1+ik8uWkaXvlkCWbvWoVNZ0+hLptGUXzTRnaCxCAdlcRVwpDdh0TTcWxZ/CL+9MdxGPfo43jyuZex7O35eOn58Xh47ERsOVKBXtNEMVGHioMbMP3FJ/HQmN/ggTEP4/HnZ2DTgXNoThkwHRuu1YPuGzuxaPpYPPSbB/G7x17G/Pe+RmfWQIk2CmiKmO/Fhb2bsHjKBExZsBxTJr2Ix373W/zxmZnYdOQyuvJyWkq6oEX//oZTWPHkPbjn2cXYdrkdaXK8joqGHFNGmVYcHafW4aXHH8FDE5bhandKLLyLabeIboZQcrJI3zyM+ePux91/XID9lb3iwUDTXe6fKKfOfShT7WlHHS6cXDjVaNR0OYpueH+MxCfIM8hvpDLmqdGMgHt0mJgXpyzj26Za/REwBdsaLcPHrfEM9E25/DA/je4OMUXh9nGWl1ue5v+FNSsftHRWt6v2YM0ns/DCqvH4w7w/4JkP38LeWBt6HVoQNmHb/Th5YjWeW/QoHls5CZM/nofJm1/B48uexfPb38WhWB/yxUZcvbkTc999BS+sfgrj3noSj6+dhPGbX8dLmxdg1ZefozaVREFECmFnxR1Swl+tDsQqPsDT9/93/P0//hJ/+P2v8E//8H/j3+/+NZ58Yhz+7Z9/ij9PfwsXEhn0t1zFgXVz8fyzz+CFl1/B9Ckv4/cP3IuH/vQMVn1WLRfR7QEkWs5h73sLMfXph/E//uEfcc/zG1HTnwY5H4qa7EwM+5a+iv/8P/4O/+O+cZi6cBnenPUC7r/rLvzqqXk4cr0TGdtByaEdySyaL3+CZ3/xYzz82mac6swiS3+9RNNcMUUghyajpmzjHrwx4VH87MHxOFbfjzzt+pEDLTli48G1U8jcPIi5j92Hn/9pEfaRsxoyxCFYf5qgdBNpqFSm/Twa1icboEZTdhqonuIqovNthHlQqvMd6VqXx/V1euYl6fzBMJymfJnOl+txyvx1mqhrzmN6rq9Hs5yn03AepzofeR2NW6cvd63zIhr/5/OMouE8nS/l8T2nwbxonuVowjz0aSDXYRo9lde+rOFlOk6mE4dC5dTHFAvXtGWeHmhAZdNX2POX5Zj49ji8sGM19nR2oFs5K9fpx+nTazFx+Vg8sWk+3j6zF/tufILpm17CI2+9jnVXa5E0E4gnG3Cl5gA++HwBnl/7DMZvX4VVl07jq/oKXO3pQNwqwqL1K7VgzaD8A5rkrGLovPYBXnj4Jxjz0koc/GwzXn7g5/iXB1/C7v0H8fqEJzD26cnYWp/EQH8rWi6dwPVbtejoiyPZ34jTu5bjsfvvxb2Td6CmPyUW5C3LgJFpRfuF7Xjuwbvx4KQPUN2XEs6HpmN2th2H35qGn/9ff49fvbQWpxo7ke6pwM55T+JffjEOC7d+jd4ibUbQkYR+3DqxEg/864/x9LLtuJmxxHSZ2kIL8mJDQCzEF1HsP4HVs57Gj38+Bh9VtKHPIYcnj1E4dhFDZh+aT+/An+/7GX717GocbUjAKRXkyX219ubriIxBcyhqikDrAJIm+B9uwtkwjffqjxyEgd1AzcHJLzQqGV6+lCtlsyyikf8rF8DEO6c6JsVHbwddU33GLaYHobaxvACmQGTC+lBrjVRfrDFyPg8I2R5PPg3ecpg03FGYgri1vmBcns74C5wjYPJkEd7vB5PEy3rg1O9fKmf9Cnvhdoi+kP2r09A108nroM1Rnk/D15zaQlY0TTQmeYKdQNHumiPXRkpOEY4dR+utnZiz9ilM+GQtdnd2SWclooE+nP56LV5a/me8vOdjnI53oStdi7VbZ+KxJZPw1qVr6DJp2uXAKd5GReUmTNn0HF46tAuf9Q2i6Jri+IDYuaMO9QaRarxSguUOoSSc1VZMGvtrPLP4COorD2PtpMdx/8T1OHelCh/OfwXjn34Ra64nkLVSKPZW48qJ/dj64XvYsnElVi6YhPt+dhf+7fHlqOhMwHYMsT7kFDoRu7AVz425G7955WPc7KPISpZJZzUdv/2Pn+GVDyrQmC2gVGxE5a6ZuOeeP2HK6n3oLND6VhElsw03Ds7D3f/0H3h57U40FWzQEQ1aryJnJefqLqwhG1b6CrYsnIB//Y97seZUHWI27ZbKYyLZxrP48pPVmPLMY/i3n9yPWe+eRM1gQaxZ+Q5AdrQwAB4IIvXz/c6nhVDSJxuHSjV6v0wNEI1WyNTq60Ynn3qStxzoEXJUBMB4ZH0ehN+ASZOrt13gFWXsGBQGJYtxsSyWPYyHOG4S0WZNN15dzovApMvxdelj4vJyuvTLg30T4MXy1cD3cFFfKUzcB3qZnsd6oTxdpsyXeVyXnbJXR9NtkMbvQx2vjonpPV5aW0Qdwh/CJPFFY/LeDZTrIuQ45EArWRl0V+3AvDVPYMKOtdjV2S2dFTk1uw+nz67Hq74hTAAAIABJREFUhKXjMfnTXbiaTiKZbsCWrTPx5OKX8PblS4iZ8kDjUL4eldc3YMqG5/DCwb042JcVUyQ6HErARFRHzlJ7Mss8WnQewpDVjti17Xjlyd/hmWVfoLHyM2ycOg6/mfouzl+pxvYFr2L8n5/Fumu96G6/ir3r5uHB++/DT3/2S/zyl3fh3v/8b/jv//vf4SePvIHLXUmYTkEuxhdiaD3zIZ77zd34zaSPUd2XFpGSWXJhpVtxcMU0PPJfv8Zr++rRSutZxSbU7JuJX//q95i6ag9i7KyMZlw/+Bp+9k93YeK63Wgs2CiKJxJ1BO8eOiKCtNJXsXnhBPzzT+/FqhP1iFk0XbRhWVk0nduHNyY8hJ/8t7/Hv971ENZ/2Yh2i3Zl5a4pGbz86U5CGR8ZATt89YQWna4WO8V1GRrRB7TDqco5pXzxlGVjCpULeRwNEA1HMSF64sPRXhiHLkunEQYf4sPyRoVJYRkRk3JYd4JJb5vAx04wpCui83CX05OuS41PGN836WkkTKJshHbrOLlvOGVd6jR07ZVzFKXZXFge33M90gnnsf64TE9Zd8pZyacMHcYkR0Hnklw7jY6a3Zi7ZqxwVnu6utU5K+msvj63Di8ufQ6T9+7A1VQCA5k6bN42A08ueQlvX7qIDpPWf4ZQyt1GxZV1mLzhOUw4uBsH+rPKIdKgk/LEIIxwVrY7hL+Ss7q+DS8/OQZPL/0L6m8cwIbpYzFm6ru4UFGDrQum4PmnnsOmq+04vXs5/viL/8BvJ8zB1qNncOXqKZw7tBYvPPQL/OSRObjUmYDhFFGkqKfQjrav38cLY+7GmFe3oro3BdvKizJyVp+tmIY/3vNrzPq0TjirvxYaULOXnNXDwll1FCgKLaBkdeLmF4txzz//BE+/tQPVORt5Cps9JyMX2i3aQY2fxZrXn8O//WwM3rvYjl6XjmHQ7qOJwkAHWm+exO41r+PX//kLPDF/Jy51ZyGiXA7DtaecMBJ2YLoj0p7AuiHxNemaDYRTMQ0MDTCmYyPy5Gl0wqDEg2a402R5LINT2ddBepbFNIIvOyvFn3GIMtUGlqGnzIPpRVmInnkEaKhdI8iKwsSyAmWafjxcmnym5TYzjciP0GUUprDcKBrO8+Sp9vE9pzoO5st1GZuuJ4+G+0e1V88X9TQ78+qPkMc0AldIX5znOysycjqo6RRhWllki31ovLkTr615EhO2v42dsWa0WxYKdgGGk8DXZ9bjxaUv4NW9n+BqKo5kphabts3AE0tlZNWunNVQvg5Xr27AlI3P4rlPP8Kujj4M2gXkbTriQCfTpdPSIysCbrmm2JkrCWf1sXBW45ccQ/31z/DOtCfx22nkrG5i64LJmPDMc9h8oQY7356I//iXu7D4wBl0WiUMOT1oO/M+nrv/Lvz7I3NxoSMOgxaz6cyW1YmeS9sw8aF78btpu3B7ICemXOSoyVkdWjEdf7znfszcV4+WnIGhYgNqP52OX9/3EKat2iOmgXQ63nGSaLr0Ph79zx/j4bnv4WyfgRytQ6kzW3RoldbBaO0p33YQ8yeOxU/vexIHb/VjkM6n0VSZzoa5ljhA23/tICY99F/45djFOHyrF+LVIhHtyrU9YUjktHhwaQbABjNSysap03zXeTrv8PVoZXG9b0vP9fR0tDzuhE6XF76+E75Rdb9v/qORGcYQvo/icad5P6JoiphQRFVycyjmY6i8fQKHrhzA+4cWYcLKsXhqywws/Go7tleewZetDWjMx/Hl2bV4ful4vLx3JyrSAxhI12DDx1MwbskLWHH5EtpNcjZDGDLbUFvzMV7bNB6PrZuFucd24ZMrX+J0cz26jKJwHv7WPE91CI9yVnYrYtc+xItjH8Cf3zyG29cOYuPUsXiQpoEVVdg6fyKe//MzeOdKEw5smoH7fvJTzP1gL+p6Exjorsb62WPxj3/3d/iX38/Dpa44LCsNIzOATLwBtae24qkHf4mHX1qHGy1dSKayiJs2ipkWHFw+Bb//xX2YtrcBzbki/lqsR82nU3HfPb/Dq2/tRkeB1t0M2KUCeuqOYd4ff457JizH7soeZEiXnrOiE/QlOE4KvRc2YeLY3+OBp+bjQmcKhudwSqB3Bl07i8zNw3hj7K/xi0cWYN91OmdliEhUvIKkDsrKNQBfV2FDGen+Tg0mzDuKX5hGv4+ij8rjOlFlUXlMH5VG0X/XeVFyOe/7lvVd84/ix20ZbRrF407zQs5qEInENby7dz4mrJ6IZ1aNx2NLx+LRFU/jyTUv4Ol35uC1o4fwVX8njp3dgBeXPIPJe2gaOIB4ug4bP56BcYsmYOXFC+g0KaKg6CaJRPwSth9ZjGeW/xlj3xqPJ9bMwKKjB1CVGkRRRFZqzURMc2gQynUZi06aOzG0X9uOF8c+iKcXHUbd9cNYS2tWk9/BhStV+Gj+RIwf9zTeqehC0/XP8PYrj+Hue+/Hw+OewcSJ4zF+7AP41//xT/jpI3NwvTuOTN9t7Fq9AJOeeAgP3/dT/J//6/+C/+0f/h0PPjIOz0+ejz2XapHOtGH/W9Px8C/uxaw9t9CSIWfVhBt7Z+Ke/xqDV1d8gs58UUShdslEPn4LX656Dnc/9DIWbT+FQXJOIvqhiMqVrwoV2nH6nZn4w5g/Ysam42jMGBhS56foaAO1lZxVquoQ3hh7H+5+ZC4OVnWLs1j0vmbYSMQCpYpKw2Uj3d+pwYR5R/EL0+j3UfRReVwnqiwqj+mj0ij67zovSi7nfd+yvmv+Ufy4LaNNo3jcaZ7cDVRP7CE3j2yuHSevfIaPvtiG909sw0enPhG/D09sw7snP8XuqhuozqRQ33Ie+0/twsGqG4gVC8gWe3Hh2hHsOHEAp9raMWhbYopHXxywzD40tF7EobO78dHJbdh0/FMcqLyKWD7nvfPGSuAG0WCk3TRydsnOqzi46yPsPVGD/u4anDuyCx8eOoeW9k5UfHkAe3fvwdlYGlahG42XPsfbi+fjlWkzMXfhAuzZux0ffvQB3tl+HJ2ZHLKJFux7dzVmvzoRU16dhClTpmDy5CmY+MpkTJ+3HEev1SBfjOPW14ewddMWfF7Zg4RhY8iKI1Z1BO+9uxVHvq5E2iIHIp2IbcTRfm4LHh/zRzw7ZwMasg4KQ/TCNi0gkvPNw+g7jxWTnsEDf5iA/ZV9SFiOeM9SOB3h2IbEK07Z28ew+Jl7cdd947H1fCOKtiumw/TaD+uIUtJT4KewMI10lpLGo/ciOX8nh8qijy6odSVt/SAgT8jXcfhTU09eaIoqMCncHk0ZTL4dyM0DKZtx+9iiMDFvkSr+nBfgy23wMCidarosK5fXbLwd1AhMGl+W/11gkrx8XXg60DBxHssdfu/3HWOiNEzP9diedBqdVl77NkD1dFq/730ZXJ9TouFrkYb6QX3W2FIvMNNLyEVkjQySxUHEC0kMFFNIit8gEsU0EqaFjOuiaKaRMlJIWqZ4vcZyi8gbKQwaWaRsOuQod/rEYHUMsQ6WKyaRLCYRL2SQNAso8Ost6oxNAKiKrug4gWNlUcilkCrQgdQsjFwKAwUDRcuCWUgjm8uIrxzQeptbTCKT7EZfvB99A0lkCllkcimks4b43ErJyiE32I9EXy/643EkBuIYSPSgv78PvYlBJA2pAys/iGw6hbQhvxRBr+k4ZhLpTAaZIr1cTe8kysiJXsrO9VZg3exJePqVBTha3YmkzTsdFhxzAN0VOzDl+Zcwaf47aMraKqKUEaR8L5MOjhZh9V7F9iXP4Sf//GP8ZvwsvLP3JK4394J2KUk//AsYkee4qFx/FYgdmm+Y0iA0mrKHQsu9A8Y8yRiZD19z2UjyvpmG7cA3cFlHnMWi3TR2Ml67mafEIXGNjMnnHcSq69Vvnz+I/HokU9e3vPfr+5gEncLN2MJt8GWF+QTx+XR/Cybixfw41eXpfa7j13Wp04R56M6KZTGNfi/zxA6jGue+PnR6iU3S2dA+EUNE9AkWGqwSqO044qyUpb7EQCmdnRILxuLVFBuUR3Q0VTGV8xHni/SdPvKyxNsxYdkWLNuQ9ZQcHoC+kfq7hOJLEIKOzjXJDQBqmOV9WYGPP7AR0zepqA2WlEERHv0s6VjoqABhFZ/CEe2i3Th6hUi1jdoS6FA6PqCOVji0jmaIdtLBVfmytuyEkhlHy8XPsHX7HnxR0YQURV7iCxQ2bCOJtgv7se2TA/jyWjNyYheQvv0lB7t0VlL/JSuO5orPMP/lcbjn7l/ht5PWYf+lem+6zDryMepGJbFIg2RjDuYFjYLLpFFwPTZoKYtpKI2mC9bT6aOudbz6tU8ro9FyZYwjutzHQuU6reQv9abnM52f59NwXliXeh3J15cbdU+D3efFuEhOWFa5vOH89YgzCk+5PMqX40vKlnSMYzjO4e3xaSQvHxu3M9hW5h22H59PWEYQO9N5u4E+cCZUA1o4Glt9IUAql2jpJw51qmvOk8DlN6QkTxrUpBz+MB83UEv1cI9frKanlvqMjGgkfepFC6vl52HIAcqXj6Us5snf5VL3/FE9MhhaQxJTH1nGuGWepmTapVPftpLv+dHH+ejlZEOcuKd20lNO/CjKot08I4F0NoPBAkVe7DzlYruZ6UcyU0DWKnlRGTl16gj5IzzUZgOOMYDB3ha01N/GrfYU+nIWDHE+R9IyZtKLN7BZh9rZFTqv5PPXrnUaoRNpZGFa/RxMuEzc63z4/JDn0Py+4Lqij7xpmSqne5HHT2XCKfO8tomHhdKPN+iZfzBlWXJgkN2pc2pKrtSZGhxCZ5oOBXYfD/OSbdX0J/osqDNpD9wG4qFdC1uRtiV5ctvZ3ohePri8vuUziCoNYGEdaG3i9up0xIvueeeY9Uq0LIdpOA2c4/JsM3hWTvDUbI/qioc34RkK6kWUKZvQsdH1N9qXks90yllJ58MguOEUaUmHIb8DJRyR+NiepCfnQQNODHSlVAlcOhYJVDkr7yuibAxBIxO8VaOpHv182bQAz85KdYBQgPymFdHyN6ukgStjFPzk6XzBTxmZ+OyMJotkiyMUwmAIF72ILH9CFyJSk+ehfExsfDR94+mg36lsEIKX0JH2KRvxaRhqhzRQopW6l6fehVOmz9KIz9PQl0N1R0+6CeuOdOr3kWcU37ezEoNGDgaB3xs82iBUA4bKqQ8CA4faQbi9B5TSvcijoxrhdsq+tyhqprcgROQ6/NAsyZJHXygKLoqInJ2W0F0Ad1iGfLCKfgsMVimbdSvaoexJ6l46AG6fsBuFX2838fVo2OkIPYzsrEQ9qit+dLRHfljSEkdjaBzIdkh8Uo9CrqKXeGgdWc5QSA+eHSmcftukHL4Xqf5gErj9ozQkh34u9Zt3KJRtmvUb1B/xZCcUkKPrXF0zneesuHNkJ8jGssKlsnlw+soepgzlbUk415VKpDryJ3lxAziVypH8NNnEb9jAlLwt+iifZszy2h+wbBQSCzkecirEWzo4GggezmEygrhkGzhPplSfzln5mGWE5xmTKJdYiUZEWiIyk9NDiYN4KV0JDKQjcnxSxxS5umK6yzSUyk6XeiQHKB05DxguFwbwPTsriV3HxjqSeVI3ErNPS/jps9nUV7IvSL8mtVmcOSN6il7p22I8CCmPIlsaFCpiJQfH0/mATuSngMg5ia/Qii9j+HzkA1biIwz08PH70H/Icp5nP5ouuYzGivzUtiGxaLMMtn+ipR99bFGcy6N+Vs6ZHrCSl9SRuPbsRtoABQJsf0xLqXQ2VEZLGHIZQ5YzpmBfyHFNR23ka3VyhiG/wEu8eCzxmJAy5JgVed6aKUdOFMhQP8lPoEuMdO3jFX3uPWiDzoroiXY0P89Z6UZE16LBQqASqhTLiuCUhMlrHVxIQZ4TCNNo9/QeomuI81aFEn27nL9R7vMS60shXvyk9DpSGK80Pq8doo7uwIgn3cundlCxLE9PCaePldvOHyqUn2SWUZU0WqkTopMfDZS8uB6tjTFeORBpEEmdEw3xEBsKtgmLDuBacnGfBqg8PEtTyiJcMyfW/gxbOkHxsrRqlzBegVkagsTP7eC2aIPEc/hc5rdf6md4XV8nVCaf1PRCuvgqq4iAKaKhdUluLzmBIswSHWeRX3olPdA5NS9fOC85OLiPBG9ySKo9JNe1S7DTLuxkCXaqhJJBH1KU2IlORNhOCU6u5NG4+SG4zpDQfXC6T21VywjC8bGDkw5P9pVsP9sKpxI/OUxqN7WN1jPlp4MssXwg9S8iwJIhykVUoxysOHzstYtwcJ/oB6VJR1q+isgd24GTL8FKlGAPluAU6DPdOma/D7mveAyV7BLc4hBcawiEkx769pApfqK9IiplnQf5yAe8xCqclPawkfxl5Cb6WfStBWvIhCEePMNnVKzLke2M7diGF1lRBX7/Rzwx2GGRMXMUIgxbVVZ5vFIvPbeiFTsf0oDkArmsI2SQHDGYqdEmivlu3Lh1Gvu+PoKzHTEM2LJzgg0hWlo4l8avR0ieXGWwcpomFUrKl0/wEGb26GqdhWVJ4wwqVS+T18RLTv3onv7coWRn4di2+MyLQWtiapGeynmgyddvaDDy1I/4mOoDZGody0qi7dYFrFu8EDNnvYE5K7biakMXTKckDtjSBkW6qxEHNi/H/NnTMPuNpTh8vhJJU250kAzRftU+1o3ArfpROEXqW71/1VPOa79w8kGdCV6Ur/hQKnmZ8ssRNADEIHDhGmpA0AcdaVpAh2SNIfFzyZEIefRtMReOqCenyMSTdSYctHgZXNmRkOsgE8+j+qN23FwZQ826HnR9nkJxoCj/mk2toxo5Cy1f9ODGqjbUrOlFy8dJpNrz+H/Ye8/guI5kTXT/7q+3u/Hei429sfeNuX5m7sxoNJQoUjSSKEM5knKUoZFEGVIkRe+tKFL0oLegkei9d6ABQXjvGqbhuoH23p52APd7kVlV3QcgqNFdzY3YH/fHidN9Tp0yWZlfZWVlZSVlAEYhwAKE+v4WvKV/J3lJyYAOYFjroVVfakOsB4lktzSJEJ2EhkztpffUfm47P6doHArIJY9Q1FnOm55L2qcHPfUugW46xyCYgPFqFyo2tMKw2YWmw1aEO2hFX9BKBX1k2SNzBmujQnP1myLoPOuH6aYLWoBsvknEE1Tvh7LOQsulutBgLPpd0YNooS6hrQreEoMmDajdSWrrQ6Ti3UjGJB9owrYraJ3RqFRenIdO0xL8QTwq0zKePA6sdEayzBxU9zEzuy4j1Sh5F4XL9OwZL4jPxjs59xXaQAw+dxUOHP8GE1Z8ic0FeWiJKrVcEF41hIGK40cRkahDac9dTEQzoHIlWCkC6JmQ8kjnQ+n6gFXmG9UR4q6ANvOevs0QnsEh7oPHVIyrl66itNkEP7lt0OqjLCdTD8qzW4KVyJ/SiJGTHEdTSMVMuHV0M/7061/h98++gbEzs5Bb245ogsBKxBLzddTh8Kpp+OCVp/HLv/1HTPo2G0Z/FFEONSPBXLU3bT9QTEzMp0Aow4AZDahP+3X9zEzbp5+5bTSC+uOwFnjhyY8g3BWHpziMrrt+RF3CHqX547DkeuG4HYLmoWdk24ghYonBfMMD54MI4ppiYgJBukhAM0JKNkuil88SQsWmFpTNa0f+lFbULbHC0xSUmkGSdwWQEDaeNKNkUQuKp3eg8msLOu7ZEI9R+zK2oQxP0HNJI56qZ+go+l7Pi5mFF+IFzReD/XYIljy/aBsLc0ZjDlticNwIw1rgRjwkAYC1KBpY5MDF4bG7JViJb9M8JzUdXpEngU4mEQ0kUX/ChKKFTaj8ugu5Uwxw3qUBU9ZTmjx4tZo1drHgRO3vKvCgbr4NJStaEO4KwesMoaLMgtauOB9kQtqT0OKlVpcecEVfUJ9Q3ZSmpujDvJyMI9QVhfV2CL66CKJtCVju+5gfRHrBc2pal26jBMC0nKqBQd4pPfHfI5oVf6Cbnz92RUkn8KoQdVcCSg2n3zQa9PR04+HDHr44bjqBVkqD312KPUcXYeySiVhb8ADNWhzdD3s4vciPiENXN2t+PQ9F3HXKj2Oscxk6exEdifXwIXpo/5+Mx/6Q/j/sYYN1GkTSQttbQNMaB49u3ZwP5UXfi3yFfxVph2T4/l8pLxryduONl95E1qkb8NMJQFR2D41UMi2VJb+nuhAdOE9OJ+xOJKApzYirB1Zh4O/+iNnbzyG3xQlXmKYZNPrS/sEEkmEPPG3FuH9uHUYMeArvL90Pgy+KMAmbAvN032QGGMUY1H5mLJqy8EoquXgQ/YgOJKTC9YNWPon+9B3fmc69f1PfkoE3ZI4if3UdGtc5YHsQgGGTFflLm+EzRFnLDHZouL+kDtVLLHDW+9OA7SoO4vbMatSvsyPkjfCUhELp0AAp4ug/RKqH6EMgS3VMIRFOIdQYh+umhvoFLjQucMJVS2AltiUxEMZTiHTGESiJo2WDDy2z/Wi9ZoVGEWzTNkAhfGyr6UlwzH7mGQ5bQsBIpgJd+9NmDx2wdXfDawqicnkXCpcZ4aoMIMm7DUSspngiha5cD6oWWlCwvhYhmwaN7TwU15/k4SHzMIGeAAEaSMjmpAb3OGvexOdUN+IbEtxELIWwKY5AeQxtq/3Im2KE/VoQCenbR/3CQMV8EEcPLdQ87EEy0Y2uIg8a57pQvtSEcGcQ5gYHdm2+h6MX7WjzU/9m2qd4hevGsiRlj3mZ5IEGUJGep8PxKEwP7Chd1IGmwzZ4bmkoWGZA0xY7tBiZe2S7pFZOAzUtFGRsk5K/dDxHfaDA7T+lR0yVgApn1Z0qofstmTWdvl/mld+ojqUz8Gg1JhGAJ2iF2d2ONk8HTCE3vHFC7hgC3grsP7Ec41d+ig0FOajy2WBym9FO+w0TIswwESSRCCMQtsHsNaPV3Y4WtwkdfgfctCGaOpAYK6lBi3vQ5bWh02uHI+SEPWhBm7MDbT477PEEIjyKZbQrbo8kuBJowTDkQuCHubUZlZUVKC0tRU19I8zuACIEDIkQfHYjqoqu4OimTzni6ISF63G1oAz55XVoMnsRihMgJ5GgjdsuM8xdnbDYHDC1tqCyvASlFVUwWr3wxwTYMlgd/g5DBw7DmktVaI8T/cgNRIVITgpgSTjQVrYHHzz/LCYsP4AGXxQR6j8SBLIjqL7S9yO3UfQPtY8YgIVAAqcCdB4EeCSThn71ncpT/Zc0I7DyN0dQsrgFrctIewqjaaUbZXPN8FRGEE8k4G+KIH9WCwxzHLBXeBiUyKZluxvA/a+a0LjMhYA7zIxLNinNkkKwLg5fuYZgXQwxu5he8KDVnUI0GYW/I4ziJc1oWiTAShivCVwELaNkBw3HUJXdjobZPrTdsCMWIzqScFA6YWtMxnugWZMIVMbgK9MQbEiwTUxM2QRYcfpe7ReaCgmxzxxCwxInymdbYL3lRcydRLA5hpAxgVgghbaTLjTMdqBiXTuCliii0Rg0cwr+6jh8ZTGEG0V5ZHNK14tslc4ktI4EtM4UwsYEvBUavFVRBuFkTPCBloigZZcDtyfXwXY9iFic6pu52PQQSiHSkYSf2lcZh/V6EI3z3Shf3oFwVwR+UwBnsmuxcoMBt2r9iKkYWb3y6UYoEIfbGYfDk0SnJYy29gA6rRqCUdIIxZmbMS2C9ht2GOa60LrDBee5KMrmmmBc5UY0HGVtTD/widVu2umhtMoMWLEsEs0JvLlO/y6aFRVAoxyNiBoSWidqmq5i94U1mJM9F9OzF2LRuX04YWiAPabB561C9smlmLhqPBae2YzN17Iwd/8CzD93EMebjLAkyHgYgtdagSs527Di+ErMOrgIsw4uwfyTO3C4pgL1YY1BqDvphsV8E2uPrcPCY1uxLecgNl9YhznZCzH/1C4cbe6Ejew7PFoLlFeozaMZuSjwdEpDMtSGqpyDmP7RaLww/HkMHzYMr7/3Kb49cRst4Si0SDsKL2/F2JFDMfiJX+P//S//Hb/+7Z8w+IVXMPyNz7F85w2Y/FFezdMCXSjYtwxffj4FMxYsx+yvp2LMyOfx/Mg3MXvnNVSaaVNzCslYK65+vx5DnhqC5aeLYIwl0J0QS+9i9CFGJCdXC5ryt+Ld4YMwYcUBNPgJrAisxSobMQRfUkOmjqeThsTorSEe6ERXmwENBgPq62tRW1+HOoMBdfX1qK83oMFMB4HQ6hX1oRDYvnfKk0ZeLRVDoCWKkqVGtCz3MVg1r/KgfJ4Z3soID3iB5jAK57bAMN8JV70fCV5uj8JVFMSD6a1oXOFmsEpEY6yNtW7yom6BB7VzPKid50D7Tg8C7ZrQHFIpRJIR+FrDKFyUASuth9pOACQYP5qMIBqKoWJPGwwEVjkOxOM0xcpM42PRJFylYTSvd6N+Ll0e1Cx0oetkAGGLHEC4/TRdJ4dpMT1kQSKw7u5GyBmBcaMLVbNt6Drrh/euhpJ57WhZ4YWj0ofmvU40zHaiMbsTYasGd0UQxu/cqJ/nQf1cHwyL3Gg/5kHUTjYn0lS6EXbG0HzQjtaVAXRsCqL9uyCq59pQPc+Ctmw3gvYoYkkNEYqDtt2Bu5PrYL+u16xoUIojEU5wfzSsdKJ2jguGhT60rgjCOMeH8hUdiFAbIzG0V/mwZmU+9p2zwRqltgrQED5XCSS1JKpuG/HD3gbsONaJfftrsG5dCb7dWoebJQE4o6K8eCyKjltO1M91oGWnG47zUZTNM8G42oOoRospYupLGhUdKOOxtKKxrgHNnT4ECawV3+p4jvhOyWh6GkiILBiSDO0KnRWqZd4x0slM09/0GnUUWKXQE3egqfkiNhydjwnrP8ZHm77CZ9um45NtC7Hm5g20hYLweapx8NRSfLz6I3y8aw6m7p2FT74bi7fXzcDM82dRSvaYeADthhzsPDQfM/YuwvzDKzA/exY+2fwVvjywCUcbm2AjLSRhRUvTMXy18VOMWT0JE3fOw6wvv2ImAAAgAElEQVRDizE7eyFmfr8Re6qb0BXREH/EZ4SILdpMp+Ck4m5Yy87i28ljMGTYG5g2fznWrV6GBYsWY/2Jm6hzhxDVnOisv43je9dh6fS38Ztf/xZvTpiCjbv3Y/uBc7ha2AK3JrYxad5WXFv2Ef749/+Ef3nmVUxdshpZWzZi/aZN2HT8AarNtKGbwKoF1w6vxZCnh2DFmSK0xCiSqDgejMCK+ocWDLoTFjQXbMN7w5/FeAIrqVmlFyCkgKl+JFAhIeABJBmEqews1i/8HG+//RbGjBmFUWNG4Y0xozFq9GiMHvM2Jq/cjeu1nYjwN4IuCqwEnYSGJsAqgaBZQ9G6BjRtcMGeH0TzFifbRAINGrsbBFsiKJhrRNM8L9y3otCak4gak3Be0FDytRWNK1wIeMPwGH0sfCVzO1C3xg7T3jBqV9lQOrcdxn1OhN0au6DEaKGhJYyiRS1Cs6oLItZDGiVp2MKAT8IcCyVQubtDaFa3HNC0zFSE7DvexhBq1nSifIYN9d840Z7lR9VcO8rmmNB5xsuaGbebV80EWIkFHKGd9XT3IOKLoe2AC9WzbTAd8sN+PIJ7nzegcZaLjdgNmxyoneuA6bIbnqoQ6jZ1oXxGJxpXutG+JYiauU6Uzu5A5yUPNJ8Aw5A1isp1HTDM9KFilgWtm33o2h+CaW8Q5tM+BKxhiN0gGlq2OXFncj3s1+ncS+lkzDOROBwVftStsKN4ejva1wbQvjmE6jk2NM3yoHxFO8I2sbsjYo/jh20F2LDDiAdtoXTwSLXglogkkXuyGotn5OHrDQZcybHixqVOrFtbgXV7G1FoDLPtNR6PwpzvROXSLhh/cMF9S0PxSiOatzkQ1WgRhLR/ss/GkQiZcGHXakx460PMWHMKHUExsAmAzPAc83xfzSoNPMTYPxOs2P5C0xdvJU5dXobPNn2Kzw59h93ld3C9/g5OFV/BxfpaWKMh+DxVOHhqCSZ+9yG+OrERu4sv4OC1VRi/bjI+2rUZ1y12+BMhuK1VKKi+iMtND3CvtQg3qo/h26ML8P53X+Hb3Fuoi0SRSljR1nISM7I+wdtrPseM07tx3FCIvNZi3GsuQbHTB0+MmE52Kq8ySMJIuxiFtUlFLag+sxYfDfsDRk5aj7zmTgQCLljMRtSZrLCRHSlJpzCHEA+1ouLKKjz39ItYuv8cusIaQqTqx4XmQQId87bizqqJ+NPf/QaD3p6BSzVdcAQCCAbc6LD64A7R0naPBKs1EqyKHwErHtFpBVGB1bDBQrP6SWAlpz3JIOw153Fw7Qx8+cUXmDTpM3z62af45PNPMemzTzHp8y8xb9sp3Gp2sMFV2fD0YMUMJAcsGoVj/gSseT647kcQNsXgzicjawCaM4VYIolASwTF89tgmOlG5cJOVHxjRuUqM+oWOFD0VRcav3Eg4Amh8aIZTXOdaFrngrckipg9Bff9CKoX2Vgrc9R7kaKN3UkN/tZIL7AizYp4mPqW7rwtisBqjwCrdgYrAfzsgxWNo/2yHVUzrDAsccJdF0LUGof5Bz/KZ3ShcaUN3q6A8D+S28kEUAu/JpaXVDdi4QTMV7wwzHfDmOWG9UAIDya3omm2B+YzbjSscKJqgQVOWnQ4F0Dh9FY0LXfBVRpExJFA+0EvDLOdqFzVAX8rTYWjiNijqN7UCeMsPyoXmeEuCSEZSCHuSSFiSTAIk2kgloihZbsCK2Fg576h2P9aAsbv7SiZboZhtRWhhhhCzTFUf2tG40w3g1XIJg8QDiVRdqMFm9ZVIfuGnU00pIWTpsqLHdEk8s8YsGJeOb79wQyzP46QJ4q88x1YvroUJ+75OTZdPBFFwBSB/VZYTFmNSVju+OEuCPOWN7aHsntHDHFvI7Z8/T7+8X/8CkM++AYNnoAw2pNsSvxJ85kCK7ZvSM0ozZB6TUn9VndWf8VcUkwvSNiFYKo7+ZukUiE4zDlYvesLTMyaifWl92HQNERSGsKJEPwxMjZG4fdUYv/xxRi/6mOsfnADtSE3mpvPYNrmKfhgyypcMnXCEw8j4m9CReMVnCo7g0MFJ7A7ZxsWHpyJ9777HEtyzqOAkDlpRUfLcUzP+gzvbVyCfVVV6EwmoFEYF9poTUxMS7lK3SQNS2pZvMrHqN+NVNyB1rt7MPXNAfjDM29iYdYhXLhdCEOXF744OfiJ+FNs0NbaUH5xCYYPeAEL952HhaaZ7PkvXC3Ir0jzGnF75Xg889Rr+HLNaXTFyOZBgiNGNjKgawSWrFmtwVDWrARYdSeEgNGIzs5/ZJdKWGAs2I53hw5mzcrgiyAi928KQBOaT9p2JbVmYkBaQaUIEmG/DS6Xiy8nbeh2OeByOeF00XmQEfjTfjuifzN5ybyljZOXt0kbjXazG0Laj4f+k/2JwSqK0gUEVi6UzjKheIEJJfPbUT3LioLJHQxWPmsQVXvaOU37kgBMG8Jo2xxE+9oQ6mZ5UDfLCVO+EymifyqWBqtGslnVBaHASuxkENM2WuKvkppV+02yWZFDpLT3BGKozzahfpYTrYecSMUEDwcaNdQusqJmrgUEjlQWO6uSW4D0n2IasxykEIslYC32oXGBG4blLnTtCKFsRidaF/jQlR1E0wI3KpZ28OpY+1438qa0wHzEh3iIbLZxeOpCMC7xIG9mE9wVIcSScURsUdRs7IRxth+N+yyIeUhDpSkULeqIqS59G0sk0LrdhbukWd0gzUryNk3PwzE0brAh7ysjLOcDSMSTiJNLxxkHGmcrmxXZ8BJIxpPwdATx/dZSrNrRjlpXFFFeWRSLEKRZPTjTgPWrDTh01yV4IxxGY74d364pxuFrXgRZm9OEOwr5fZH7SizFPmDMG1SOXLTgPcRhO/LPfY9v5i3G9iN3YYuQuUPWX7oqKGxSuJSeBrIAq+nR/8ZqoJ6ZCaySST86Wy9jwcZPMXHrEhxsaUEnOaTFKewLTW9ov2EUAXcFso8vw7iVk7CxOB/t0RDMzRcxN2sKPspahSvmDjgiFlRWHsWCndMx7rvJmLxrMebtnYdpmz/G2DUTsfDmSeQGyI/Gig7jEUzfOhUf7dyCU0Yz/LSKpra3qG0zOuOhEm72nZLLtCkK6eKsxfXv1+KtkS/ihRdfxOujxmDcVwux92I+TAHhU0Un0qTibSi7sBjDBjyHhXvPwRIXG7pp5Y4AhlTeqNeImyvHYdjLn2PB/jw4kwn0kDMsMR5tjibthEayeAuuHlZgVSI1K5r+kQ2BNAcaJJRmJcBqwsoDaPRTBAsBImkgJkDW9aOYIlF5EbjbCnHzbDZ27tiO7Tt2YPuOrdi+Ywt27tyGXbt249ClXNR0+lh71NsRVN5pYWU60soZOX0Kx0JazdM7GdKSe8Cosc2qZZ4PjvMRhKqTCFUlYT8SQel00mIc8JgCqMkyoX6GE4Wz21CyqB2Fi9pRstiEsiUdaNrqgrspwJoVDQasWS1uRcMiF9z1GbASdrm+YOUHgRXZVGi1jvqEXA5qd5pgmG1HyyUbEkkKBBlBxK6herkJlbO7YCvzQksSX4kdEHznNmcAm9rnbgmiYaED1bPs6FwfQuvaADo3hGFaF4Jxthflq1oQaA+jZZsDeV+1oOuanxcJyJE0YA2h+Rs37n/dCFcRaVZJRGwaTxeb5/phPN2FeJA85GX/kwZJmgb58yUSaNvmwr00WElbUzKJsC+CptUO5E5tgOWuH4mHccS0OMz33Wia50HFChPbrMj3jBcbwikUXW7A2u8acfyBHa4o0UnMQJKRFPLONGDDhgYcK3IjSKCtBdFYaMGa7wpx+CqBFYE5ATDNEqLMD8LOp2UcTikNa2tETwK2CLSoBo3DIJGfGvF3RoFQ/PaIzeqvA1Y051Z+UgFY2q5iWdYkTMyaj1311WhTKx7sgk9EEmC1//hSjPtmEjYVPUBbNITW5vOYs3kKPtqyGtc7m2H2luLIhTl4Z/XH+HT/Jhwov4sb1Wex5cQCfPTdRCy4dUqAVUKA1dSt0/HR7u042UJgRSc1yymCZDRCcKHSS60hJZztiFDieQI9qQii/i7UltzByYNbsGz6Bxgy4Ek888EinC61IEDG0ESET7cpv7BUgNX+8+hKkNc5ARXRIspaluZpxa1vJuD51yZjwf4HcDJYR5GiqZ90IOUQMP2AFWlWbKdSYEUjfaILzfkZsBIG9oxnuOrkXmDVI3y8KLZ+W/5BrPhqFIYPG4Qhw4dgyDC6nsXQYYMx5LkXMHbOJpwuMyPUx+iZzpc1UykYXC+x1E+G85j0IeKlf2LeZBwBYxSFc41omOeCs9ovNPFkDK68IPLJwL7SCW9XEFVZbaj52s5Oi+T2EGjS4DdqCLVr0OxJJDQaeWkvqrBZFS9qReMiF2tWkW6x2iT6Vqw0k82qak8HGmcLsIpqEcT5dKMYyPerbo+Jjd8tp508TSENnNwsapd2MVjZKz2IJnRgxbY/6le6pO8SAacjBMNiO8qn2WBc5ob9RBSWo2EYFrjRTPahDUaEnVEYdzpR8FUrus77EaPwRjSzaI/AuNyL3BmNcJeFWbsI2zTUbrSgea4PLWes7J9FA0TapYHpn+I8CKzuTzGwgZ0ck0VkkgTCgQga19pxf2ojbDd9vMIfjWrouuNF41w9WJGNTygRtgY7Dmyux9qDrWh00MxHblFjsGpksDpa5IYvQUb3EBoLbFjzXQkOMVgJHzDiAZ5m06yBZ1zEG7RKLWSLeEgMdnE8JPsrAVQP7Vyh99IuKzUrxW9/dbASGQshZU/a7jCC1lzsPDwVEzd9iXnXT+C2owumYCeMzjY0uJzwxiPwe8ux/8QSfPTNJGwoypdgdRbzNk/BuK2rccNsQJvzHnYd/Rxj1k/H/Bt30RjxwuwswN6zi/EBaVa3z+JekI4Ps6G9+QgIrD7cvSMDVunlakEovbqZIZ4QPrZFJGPQQl74PW5EEgmEgk6Yqy/imwkv4R+eHYe1Z0rhZuM3HcXVgYpLyzH0j4MxfftJmGI9vIpGy7Lk80NaQNTdglsrJ+KF1z7Hwuz8NFiRwZvBqjsup4GtuHroOwx96lmsOFMCI51+Q2BF23AkWFHHJxMWtOTvxHvDBmP8ykNo8NM0l9pGQqRARG97pLoIAzvF/PJZ61CYcwEnjh3F0ROZ69jxozhy4gQu5pajwRZkba8/zSrd1yw0SniFmi+mYVQHMa0isAq2aCiY04SGeU7Yq30spFoqDPsDH/KnNaFphQN+RxC1hzrQMNOJ9mwvj/oPyb+NHGJd3YhZhUc0+ZuRXYc0ldIl7bwM7ygOINpD20aEXa6bNWgysMdRu68DTeRndcaGSJRGebEFJBaJo/mYBXWz3Gja5ELETz5hcTjyaOXNitoFFriMPu6/zMCWETTBN+SzFkfYH4ZhBYGVA1XzzPAURdF5x4OKry1onOlC1c5GRIMaTzcLpnagfZsXYSdtR4rBeieI5vkeFM5vgbdegpWVwMqKJgKrszYGKzInCL7N9C+ZNFp2uJA3uRFdp/2IR8XWGaobaSxN2x0onNaK9mMu3r4VDkXQfNSGRjawm3WalVyU8Idx73gDlq+rw/VKNwIJKisG0qwenGnExg0NOFLohp8ARoLV2rVlDFYBnk1Jb/xHlAEB7mz26BFb0Xg1sMOAqrw8lNV3sTM1yYvgLUFn9TsNVhmVnphNdkZf+5ScYvROq1Rh1YEZO5YY3eJIhZqRV7AVM7Z9irEbvsKsExux5uIWLDu+Fdvu3ENr0A+vtwx7ji3Ae8smYnU+ebAH0dp0CjPXf4axm5bhWmcjunxlOH5+Dt5b8zmmHDuASw35uFSQjYU7PsGYFe9j7s3TyAlEkIhb0Np0CF9mfYmxO7JwjDzKea+hqGtmOwLVWV6qrUwoQYNUzI+20ts4l70Tpy/dRHFlNUpzfsC0t1/EkyMnY98tAxshaRqbiNtgyN2JUU89gTcnzcbF/EoYTC50eeIIJwm4Eoi4jLix7EMMeekTzNt3H04yztO3cnQmYykFK2TXhUNrMWTAECw/Sa4LtMRLWqGYAiibUzJugfHBNowdMgjjVhyEwacJYzj3U+/+4DIobwVWlIYOlmUbg/BEFjHGyH4mNwenyCYnI51K4+bj+l70teQdSUsCKkpPbafRNWiM4cGsZnZGdJQLzYqmYvZ7QTyY2ozGZQ4E3EF0FrpQv9CKB9ONMGX74cuLwXNTg3G/F03HXQjRthqOYKEh5IiiaqMZFTOs6Njih684jnBzEokQ0UxMwUkTaz5jEUb0b+zspBisjiPqiiGhxWHN96B0jhlVs2wwn/DDkxNjN4GCae0wbnEg5A5LLYDoJ9qUaa88fiyVRDQSRcNqGyqn21E8x4hAiwZLhRNl08iY7UTNfiOiIQ2WO14Uz2lH1WwLTD/44M2NoWmVG2VkBN9hYdcGyj9kiaJunRXNc/xoOWVFLCDoKMqW00Hqv+4EOo67kD/ViNbVAXaUDdbGEXOTgT0G8xU3SmebUbPcAd8DDb5CDVXLOtE404OypR2IWsSMg6de1L5EDKZSM7ZtrMeWozSjEfs9k+Ek7p+sw4Y19fghX4BYMhpCQ74N36wqRvYlDwisqH6ijpIHKU9JN8E/YnGLtKhEyIobe7/D2OdGYNzMLWj1hzJ+WHLAVTwnBgadnxVrFHJ1TFnjxTMh1OIDnXE6vTwu57VSvSMCshcyT61CCPgqceX+DszbPQUfrZuA99dPwoQdy7HxQRHaIhG4vdU4dHoVPl41GVlFhWiPhtFmvIiFW7/Gx1tX4ZqpFR7NDoPhDNYcmovPtk7H9MMrsfjYSszZMxXjN3yBJTfP4D6BVcKOVuNJzNo5C5/s2Y5zzSYEKba50jbUHFzNi3kkFoRVKM4dF/egJfck1n41Fs8Pfw7DX3gRzw0ehGGvfoCl+6/C4IkjSgCQpLl5BF5TMfYvmoShzwzEoOEv4+WxX2NNdg7MfhFkMOppw601k/DyqMlYdkiBFU3vMp1Ko3oqZsRVcgp9ehhWnS1He6Kb47STwysZ4cUmbzoFx4q24t346LkhwsBOflZsexDMIsBCaVYKSJSXNDGQcocQAkhMkaaR7FdiOqaJTiVPA7wE+jTNFEhKbUqsICrhTiDYGkPe/CYYFtrhrAmIVabuJBwPgmyrafzWyR7sWlBD120fGhZ7UD2L/HVcMMxxoZ5WCPcQeBBYCRCMa0k47gdQs9SGmplu1M11oG6jBV4jnUtJmgLZRXrgM0bQkGVH7Swv6ma7ULG4E/b7QguJejW0n/Ogdr4dNbOcaJjjROUMB5o3uuGtpqV02T+SFqr9afpKWmmxGIy7HaiYYUHF8jaQK4Cr2YeKuWbUz3ai6Uwnaz1Rlwb7xQAq51hQM9OJujku1Mxyswd/wKCBnD2pjJAtBkNWJxrmeWG80CW26TAAE2iKqRL3WbcGf2MYrVu8qJhhR/0cF2qXWtGZ5+Tywo4Yg2LVfBsayNt/qRuNC7xomuNB+bcmaDblDiM0UuKBuN+PKz80Y9HqShQYwggk4khG43hwrg5Zm2pxotCFABnftTCaSmzYsKEYR656ECIeIFsWg5NoB/1WPJ4GMZrGE7D5m7Fv7nj85m9+iYHv02pgUCwiSJng7+T3pFkRXR4xsHNh6UJk4eq/rIg+I/bFoIpKBKUNmjHaW8ibauPoTvng8TWhxHAH54rO40ThJVyoKUG5ywtfMoGIZkdNYz4u5V9HsaUL3kQMXncD7pbexMWyfDT5fIgko4iETKhrzsXF4nM4VnAFV6vu4W5NDi4WX8PdtkaYyVUgGYDHY8DN8lu4UFmKBg8tqYrd9ixYPC8WIyKvAjJYSaHiKQ21N4XuRBihzjoUXjmOjWtXY/HSJVi5chUOnb2FBquP46uL/VPkOEkd54KlPg+H9mzF0mXLMf+bLBy9WgRnmFaSYohHPOjIv4wTZ27gfk2H2IPFUxXheU8dydEIaLvNoW8x5MmnseLYA9T5yfhIdUoiQeoz1T8eRsxvREPuVrw1ZDA+XLoXBp4GCgFVIMOClR7VlNCJ0Y8YnbQe1nx48SEDWmo0SySUUAjQUv2r+IPuou8Fj/BvWZ7aWyb4JAnNm0THdScsl2m5Xm3eTiFijqP1nB32nBDi7FiYRCLYDU9uFK2HvKjfZkPjThs6j/ngqYoiqVH9xQoVtS/uT8GRG0bzXhcM262sRQUtEeEcygCTQkJLIdAYQ8f3fjRut6N2v5mnW7RPjqZRMVcKtpthNO9xoXG7DW0/eBGqJwGVg7Aa6KiflRzo+J3rkUiwt77plB9WMmaHkwh7Y+i64kfX6SAvDPBKHa1GO5OwXguheY8bhm12mI744K+NIUWbfXnQoFW7BOyFflgvhOFt8iMZJ+dcVR9pL2OhjiOppRCqT6DlENXfjvrsLtjrfQx85GQaNiXQedEPwy4bGvc7YD0Xhv1sBJZ7ftZCWS64bcKmSYeY1OeasH5tJQ5dNsPs05CIJ2BucqG0xIn6rjC0pND4PV1BlBZ1oq4lIkL8yEFMARP3v45+/Jw1/ABijmJ88+kbeOL3w/Hl7lxYImTGUeAp+FXVTWGMjMEukJAIwswqQal/hpeoKUdT9Y1S/TlUhiKkzI882ePJCCLxMMLxCMIEUtKHg6Y4sYSGCG2bIUYk0EhFoSWiCMfj0KRHMm3bSZFXMp1pGI8glKCY6mFE42ITL20ToHIohnyEvqXQHczYok2CcBkiiLbRiEJAS2CghEDYW3oSYSS0IIIBP3w+HwKBIMKa8K8SajNpLsoJkbQdOsbMj4DfD68/gGA6TjuN8HF00wGqWgxR2hJB9OH9eCkul5iK6prUWhisfveL/w/PvkX+TidR027jFSKufzKGoL0d1w+vx4JPXsY//O2v8OHSnewUGpbaRP9gJcFIaj6UhjQ1sedQ0oSFW4EWPXt0b5wCMnUXfa9oKmnJQKieSe2MXBsiPeKiHQlyNas70SOXtikigQjiSLShqA3JQA+S3h4RAiVABmAadJTtQ2wIJntRUouLkDHuFBKBJJIUyUHyJrWTvc4JkAMqZAxFeiDjuCyPhEnrQdJHZfUgGaSFE+ojBdZEEwnYMt+MjIh3/J4iDEQo4gB5odOqq4w4EOkRdWKHVbJhktc4hbfp4RA2VF6Cox4I2x8Z0Tk/yif8EN1xtc9PgZUok0JiE0+wVzhp1bJ9cQoZE+2WER7kKmZYhJKhMilPDplDkSKojrpBmviazAXeDjeun23H/pONaLZJbZZcRuJyQz15ldN3tIoXS/HZBnyUHMu9on9Gq1KyJ8CqB91JOxwNlzHh9SEY+c40nKl1IsyuIUQDxYM62krtvhdYsQCnOybDcOq5uGcyyTxXz4SGRZWiFRt6LwRDjOJCAMjASXNhMQ8XacSIr1avCLBI3Rce2dQAmraIPW88arMdRXQufZ8mOKM4lSsNdVJ9VGlUfeievqQ2QGUzMXlFghiV8pd7wFRMJdZCJDOpTmbiUidLPygZr4i37dBIzPYpYUOhjuDpntJAKC2BLBuNU+zUWpd3BlPeH4NXXh+LdyavQ05th3BroPJ49agS+xZ/gXFvvIJXR43D1jN30RmNCaBnuqu2CdDt1fmyXG67dNPgNkp7g/gt+4xoJIFcMZvIS+Wv7qrvpUDLfFnjlDRS35NxnNsrwYryIztiN09hFY+QhkwauTz9h2Po0zI6CRb1q4gKQELK5wWQv1qC3GBIeGgFioRF2HWoP1XZtKxOAEL9wheZBGgzPKXhVS9amaVLTiF79a8uH+YdIYhpvqN+pjLZxUHRXQBFWhOUS/bCREI0TglHSZ3fn6KvqB/tflCCT+XTb7rLwZWBQbaFBz7ar0r8KgZCqptykGX3BAqPw22jDc3UZ3LBRW6pyrSFwE6DozOCilon7F4RkFDQkdpGvC6AkstgnhPPVHm0IKRkkPtY1lW0rwc9cTvszbexafUy7DxyC51hAVKqDJGuD1+leh0YoV5mpnT8UZrB6X1/FzFt3+f0TIarVXYMTiOei0bKb2T+ojOEXUWARmbKwnmRoPeIRonyhLCItKIjRSeL54/WKVNHAYYKnIShUghmJg39V3mniSiFhRgmwzQkGIKpOL1kKsFYwpGPR1rZwTzSs6DpymVthPIII6l54XVYYbPY0GkPwqcRaKhRVUNK8yFk74C9qwsWuwfuaBwRCRBUvqiDoi2BLv1WwK7aRzRSv6mderqK5zxY9GKyTPrMt/p8dL/TA5GgE4GMOBCWyiLGFtqloC/lKwY2lS9Hs5QhgNgTnQL6yfryIMJAQt+JdpGdVDinkmARYAmwoj7I5CmMxZQft1cKnUrDdhQFUHK6R/2u+l7dVX6ZuypDt4GcB00hR+RzSO1U33MfkamE9kdygDrxnXqv8uX26PYiZt6L8qh/RN/K/mJfPfLZo7aLfY3pcvmdKI9pz3szM2lUmVwG8RrRj7Qm2lDdxzlYlKnarOqSaR/LkY6fMvVW/EMgHuYTn/x+L3wRCusj5IfrkcYDVQa1U/zWnW5DmckEeoDS/9YxuGpg+pte73T58PfivyCGGBky32caQUIvRiK98CvwFAyf/k4G4uPOV0Kq0xAeAR9VP7bVkFDLTuaQuqoO/d8FseRoKG1xCqyIORRTsCASDVWQQKmdEY3IHkF3AQy0KkJBzjLlUX34UkJEkREIHFlLFN9y+BMWdKW+C8N4ppOJzlIj4vKUIV0wsKKdmGroy34UrCitYhL13aN32c+yben3unYp5hWjrfLFEXUUETWpbAUusk767ylv+Z/pTCuZzLyyrbLv6R2Vzxo9pZeAo+qk3tP/NB+m+UUAikgj8qE06kp/w+3M0E3kreoh+6hPGpWnqHP/aTL5i7L7lak0TVSa3mAl6qJoJQetvv2ia286va6++vaSdquUhEw7e9M10yZdXXR9lWlXhmbiG1E/dkngvtcBvfy+d96izY8Y2LnCOs9nNTXj57oOTP9XXlciuhIAACAASURBVO993gmwECNoOi2nUcySYQZ6L+bLUp1kTUUSPN1J1GCxhUWMokLAiBnYAzydrne+nHd6ZBP1oaVTnoYy0IgQvELI6VvqkExnE7iQxiZWOkh1Fsv+NGcnMKE6kYDQdwJoM8AkAEoIgggWKNLTc1HvDOOxIZ79sqg8CpFLTo6ijZlOp3qJqSRNJ+lKM9Qj2gC9Iy2CpuTCa1sxHRtydf2lBFvRSoDqo3Ts3Y/CZpd+1ocPlPZEeYnRWNKQgZvaLeqlYpOzP48CmHTQQMnk6b4V0+aMpinAmtpIF9GQeUMKoKpbhhczwpZ+p3iDeVC0WdQ50zfptH1orJ6Lu+Braqu4MrzE73kxR+bPPCaBRf6mNJlyldz0FnJ9eURf9Y1oXyY/fTpO06s82S5Fa9l+/TeCTzK8l+EPJbuZaaD+u8xvRQtRR/Wc2pe5VNskD/8IbdN+Viqj/u5KSPTv/i3PmIg6dKd8BCFURcWdGY01AqVZ6YBKx6gkmN0JP1LRAEIx2vJCBm5h68hoKYpAGabhMnX5EKgwYDFo0KhOGkjvujFAsdYVQzLuQzLsRjgUQjASQyjeDY3sTAwuVD6N9hq6Y342okeSPSKyp2RAmnbGUhHeC0maGMWAon2R5DFNdWONKikWBxJJ2uNIQCXeZWimOro37dL0VMzLoCm8o2O0bUiWFaXyyNVCAmCa5rLd+j5WZf5bn6Xrohut1TMGbumtT35d9JxAlPpNTPEyo6u+XP5e13dkWKYYX7SJnAK60cICtYW9u3W8Rt+pfPS//9IzLk9pX+l2ZECGvu8vP5Vvf/f+0v+cZ33L+Dl5Pe5b8TwjQ33L/Ev/H59vhpaURn+pPB/37V9ds1LISQVnELl3BfXvemtUGQ1LpSFPcNUIWukLOypx6+hurNtxHGXN1kwI1jTYCKHm0ZyZPPO9yodG8e5UBLFoCEEtjigZJdX3UjCENhVHKu6Bueo6Nq9ajM8//xKfTlmMkzeL4KJVKFqNkQbbZNQOQ+457D10HDfLW/mQU7HplFaGUsILOURuDiLaZTyQEIcfkFZAmhutqkSTCEaSfFAEgSnTQAqO8DXRCaBOgEXninf0m5w7KYRuPJjkjb8UXZND6pIBts80Sl9Ghj6CZmpEU8/VaJ7+rzQaSWc1ONEqqUrDd/pPRnPauqIFEOEFARGCOM4ezbKtanRlA7zkGW5/pt1xckWJ2NBQeAWHsrNxvaQNfl4xozRkbxFTZFVXVae0UPyIRkF15XSStun/ae0rU490+/q2VaexptPoYjI9QhuV/ifm0+t7nWzoy+qVRuX/E+99+zydr65+j01DZTyuTn3KfwQbdINLukz5jSqvf7CSiUiA+374yDO54iZUfdnZSvDTjEadrLQosZojBEwyJBvYpOuAtNnQaEkah2iUYBJyf/C35WD/ki8w+uPluFLczn5OZNcR6fXlS/VSTrn07ehOeRFz1SLnwjGcufoAphDFOaL6KU2Hyhabfn1tBTi6dAIGPjMcI0Z/gAlTluDYtQdwcnRPssFQ2RGErEXImvkJ3v5kFk4WGfkQB1ppIk2AYoLbbwZgyfFyZEhHXgjmix72VKZd/YlwHB0GL65f7cD5612oaAohoElDtOxEBnWuow5Y1XxfjlDURuqfGMVEz/HBeiOAUGscrntRdFx2c3x00kSFHSzTt/q+UHTiftYxqKBP75GQ0ggNTT1XU4dM3iI/mgJGkQq3wXD/LLKPXEJdl4v9zcT3lJ7aS/mIQS5TnsiT+5cNxT1IhjtguJ2Nz8e+ja9XfY9aD8VTonRiZY/zSNNN1U1/lzRU4Pij/P4oQHE5Svh0NFK063vn9CqdvPfKg/JKy1Fv2vWXrt/8VX3+LXlJfumV32Pq0QsAVVv0Zfb5/Ui9+yvrpz6Tdforg5VkNglWJBSEinSJONAUR70HSdpUm14xEIzDsbY5xjTFJxcxsSluefLhQwYOAjuKeZ4Mm2AsuYPTNyrQaI2I2FRSiImgVI6I4U5xpyl0rwybqjN2P+ymyJM5mD5hND6cvBz17oCI0S7Tcr27U3jYo6E1/xQWjh6M1z//BjnlTTBZ3HAGKTKpcKIjsEpGbTDlbsf7r43BpEU70BRIyMB15MuTgN8SgGGVFYXfNMJ5I4LqTV0oWtgGS4ULWkyDrcGHMycbsGHrA2zcWoDvjzehpkNDkKerND2SS/YSHJimFJdbxpgXW2kEkxOThDojKP22BRUr2uG4F0Zrlgd35lbBXR7ivW5ss5L9Qoz6vw1WbNsTg4zoY9FvRHOKoS60G7FIQBvDk/46HF//FQa9OB7XK5sR7aEY5GJbjwIj6kOOrU9uBRSLvZvy7BHpero5PE8q4UXIVIC10ybinfen4YdyG0cCoFUsag/nJcGKp9hy1ZDamVn57Efz7zs4P0ZwewniTxVcle4/wCqjAP0U+urANw1W3AHqY/ZjUiAi7/2goPpGMLxgesEo9DuGpK8L7Q21aGg0oKyiFPfv3UZuYQlabF4WdmGQpjhOQXi7jGhtNqDVbEVLXTnu372Nm/fyUNlqh5s2oGoONNfm4c7dm8h9UIDiOgvstGdKggYxYtRrQVdTLRpb21FdXS7Ke1CIpi4XCz5FQQj5TKgovIzz2Uvw6pAn8MxLH2LbqUu4lnMPeeWtcAQoBEsELlMTqu5dxZ4V0/Dmn3+P5z5bjQMXcnArtxhGsw1R9oGhVcs4wvZqXPluHIaNmoZvj+bBx1oZOQDSptsYRxRoWeZG9fIuOC6G0bTOjfr5dlhKPAgFgyg624jdBxtRWh9EXYUf2XtqcSbfDWuUhI8AnhwppeYZT8HtiMHY5ENNrQeGxiBM9hgC8RRHPCC/pUBHCFVLO1G72A7XjShM3wVQPLsNzoIg28vYr0g3Egotpnc/U98SAOkFk/pWTa+4z9nRkbTLCALODlSXFXD/5Ny7j6KaRlgCUbFQoLnQXHUfOWe3YN744fjV717A4q3ZOH87F3cKK2G0+aClyM6WQCLkhK3FAGNbB9pN7agqzcft27eQW1SFJnsI4USSo6rGA624m70C4197DV9uv4NO1o5pCxPZwoTxntpFiyDdPGiKQUv4/2U0QNW+vndqn9Im+J2UCcXr/J5pqKbrmcGC0uvzo99pWvYBq3Ra3XP9t4+Up0tHU66+aUW9+q+TqrMqU93Vc7qreqp36s5TbMkzKg2lz7yXddHVSeX7SBr5HeXzY2nUO1XeXxGs5KoXG5NpxSoMy4NT+Gr0S3jttVF49d2xePH5oRg65DlMWbELBW1uhJLCxyLubsP17UswadTr+ODLhZj22Xg89+zTeGLIS/hq3XGUmRwI2Aqxc8WHeO6Zf8Uf/3UAhn/0La6WW9nDXRAjDsPtY1jywet4/b2P8f648XjtxeF48k9P4+M5G3CrzYNI3I32qjOYMv4VDPzDr/E3/89/wX/7m1/hN089gwGDRuC9mbuQ32BBXHPi/vHtmPLGUDzxD7/E3/63/4r/+vdP4HdPPYunnn8HWUeuwRGlKSN5tEdgqb+OxW8Nw4gv1+J0tQ0BdjKklUtxeoffEkLzcg+qV1jguBhB0zon6hbY0FXqQSTkR9mlZuzNbsCDEheK8pzI3leHKxVu2CMavPYoTJYwXJEkB3pztIdwLLsGy1cWY+7S+1i0qgj7zragwZFAiOw1iSSCHRFULTOjZrENrpsRdKz1o2h2C1yFEqweYbKMRqxnQMUkimkEWEmNkgz5pP0k/fCbSpC9egZeHjoUf3jyT3jyyT/htY9n4tCDBjjjPgTt5di05FMMf/q3+Kdf/N/4z//X/8Q//P4P+OOg5zFi7Nc4cL2GdxwwsDfdRdaUsXjnvQn44us5GPfeKAx+egBeGP0pvjtTAWuQHGDpnL4u2EuPYOo7z2HE+FUok4AnpsvChEABDkNOE5pLi1BU1QFbiPyQxACj1+xVm/V3bvPPAAbiSZUf/U7TUp+nvh90z/Xfqjy4Pj8TQFUeQl56A416p+r5aJoMsKg0qm696vvvCVZsJ6DplTI80m+5dMzv9L9lun6/oXdymkJG53gyBHPOHrzxr3+PX/zjAHyxYhvOnjuO9Yu/wMuvjMLMLRfQ7I6whhVzNOH8qi/w7C//Fr965i3MW7UBR48dQvYPx7H/QiFqO31IRNrRUnYBZ/cvxcSRz+GfX5qNI7ntPMqKCJox1F7Zg4lP/wv++29GYObqHbh04SgWfjEWzz3/BqbtfQBbkEJz1KPw3ikc2bUULw/5M4aMeAdbjpzEucs3caO4FWYf7VEKwNlcjpLrp7Bx8dd46akn8MKni7Dj6BmcuZ6HqlYbx7Nif6qkB8bCbLw/+Bm8s2Qv8u1R1uJodYo1x246mDOExiwHKre0w3U/CsM+G8pXd3AkSjr5xtXmx4XTDdiYdRtZW3Jx+nQbqho01DUEceakAUcuNsDQ6UfAEUHexWYsXVGM/SdMuJPnxJWrnbh834JGW1SAVSqFsDWKqqwO1GzohLMwjLa9XhSsMsBbR8HdxAZqxZysVfXTr8wPxHjqHfOB8IpW9kcydic8Dcg7tg5jhj2DUePnYvvB77Fn60Z8u3UPThQ1wK6FkIh0wVByHRePZeHrca/gn/4wDEs2bsPJi9dx6U4Z6ruCfCI3OXN6Gm5gyWsD8Itf/BZD3/kCm/bsx4njR7D3+1M4kdfGgBNPPURP0ol4Zw4WTXwZz770CS632hHiqb6wTdHiRyoZQOXN7zFt9GsY+f5CXK9qk0EKxUDDbSTAUG3sc2dhVM8eIwe90qi0/dxZC9LLWJ80PzkffX1/Zp36a7eqZ993+vo9Lg1/85g69c2P/v9oPjr6qHSZo7j0hNQXqP+ty0AVrm8EPyNbAfslhdB1ezfeHvAnDHhxEn4osiIYc8NacwzT334BQ95bjJxGK4dwiTmbcHntVxj6619h0EcrcavRiqAWQDQagMMThD9CowBtLQgi0HYFu2e+i0GjF+LY/Q4JVsR8Guqv78Pk4QPwu5GzcLLEjJBmRsP1zZj0xnMY9tVhNDh8SFDo14QN3sazmDr2Zbw7aSXKHBRjSRhoxZYB4cuUTAZQcWkvvnr1eXyQdRM1HopuIOtCI2eSltA7UXN9DUY8+Qwmrf8BdcGk2KjMUybhN0YhZj1lUXiqwtC6kvDWRuEqFgd+krd2PBaDrT2AkgcW5ObacOuuG+fONuLgoRqcONuB3EovLP4YvO0BnN5TjgWr6pFbG0Ig9r8QDqbgCsThIc1Lbp2Ih2NwV4ThKQ0jSsdMVcXhKAog6hbHe1OfqeuxYKU3UFO/Sz6gPZQp2knAQfC6oXUV4PiqLzDo93/G7J13+ESfkN8Nq8MKkycgokpSRImED3FPIU6umYA/PT8R50oa0+/InYKAimjhbbqNb0YNxj/+82BM3XwO9e4govEIgkEP7HQ+YpzaQJE0fOj2VmDN1DF4duho7KsywU18JxcbSAvsTvpw/+R6vPrbf8AvB3yEY3n1CKuQO/3wsuJpde/F24+Rg15pfiRPJXCPS/+456ou6t4r3c+sk8pTf1f11D+j3/pyH5eGv3lMnfrmx3nqB8OfQLv+wUp9SB2vfqt7n2fcCP0zZhbahxRE562deHfYc3hr+ibcNJFvURAJTwG2zBiDp0ZMwKH8eri7uxF3NeLS2ql46YlBmLj+NqxaN9gXR2325S0aBFZh+JovYPvU0Rg4ZgGDlcYjKNl2Yqi7shNTXx6OV2ftR56Jjm7qgqP8ABZOGIFBH21GeZebj2KngyVcdScx+d0XMXriEhTYvXyct1olI7sMreIRWJWc24bJLw/BOxuuoMIVRkQaa9nuQ2CldaD8/GIMfWIQpm45hpZIivfpKTWa6MNxtGh1T+sGxShPxChGNS3ni825vL0hloS9NYSc63YcONqOI2dacfuBA2ZHAmHe6JpExBHE7VMGzJxbiHX7zbh63w1DuwZPJAWtm6ItioNgafpJ0QZ4QytF++TyKCa62NnP++EkYCnhFndlyxFCr2dQ5gMaMOTWH3pHR5rF3FW4d2gZnvv9P2HgyE+wPOsALt4rRpPNjxAdp85+UMQPAUSd93Fs5Vg8MXw8ThQZ4OPVuxiHuCW3FPIJ8xquYeXoFzDwxS+Rfc8EP+3nI+Cn6BWsVdB0hNwTQugJGbBhzgcYPGgkNhe2wkGuGbwLQoTTSSWjsDQW4vTuLdh68CrqOl0c4zztbKt4Wt31fKwEtM8zRQclF4/QSOWlv+uAP52+T778vM+zvmXR//T3ffJX9Umn+Ql5PTb/fr7Vl6v/rS+31+9+8ug7MP6b2kx7A+mDx12Ued93f+mZmgqmaBp4YxfeGTES45dmI9dOhs4QEsEq7Fv4Lp4a/h623y6Hg04IcRpwce00jH5+FKYdqGYfpYztgQzLNJKT9hRBwHgJ26e9jYGj5wuwIiMwjZbdGmov78L0V1/E6KXHUdhJG0stcFYcxsIJz2PIB6tRymBFMeCtcNaexBfvjMDoiYtRaPeC/H24TLXCRSttqSBKzm7Dl68MwbvrL6PCHYFGUw1mFLGHisHqwlIM+eMzmLL5KJoj3RxRgunGWojYOiT2uJETJO1RI8Mz7dUSW3PCXj9K8ltx9EgZDh+pxMWrJty+68Xl6zacu2FCTUsA4TidxJuAtTWAU0fqsX5zGVZvKsJ3WRX44VIbjI4EInIXPQk3CT5HwEiJsijAnzAui+k6G8oZfEiwxSEKGTuOAC3KR9//gtmkLYboRO1LuuHrKEb2+oUYO+ZNjBw5Ei+/OhLjp63A6QeNcESp/wRYxdx5+GHFh/jD0HE4UVQPnwQyQasYO8l66q9g5XuvYsTY5ThV6hbuDaQx8UZgudeS2pkKoCdQh/WzxjJYZRW1wcn72MRCBJVJJ4HzymciLiIDSFsiDw5qs7uO//8Sbyta9JdOvevv3l/6n/Osbxk/J6+f+m3fMv/S/5+a778lXW+wkkY+UvPSldH/1nVs5n3G8KaecQWSYZhu7sLbw17AO19n4XYnRSUIIOErwvZZ7+DJ4eOw734tXKQROBtwYe00jBkxCtMP1UqwEl7JJDDiEnYwf/NFbJ36dlqzoiB4ZEilTaG1l3di2qsvYPSSo8jn8iRYjX8Bz75PYEUjqwKrEwxWb32ylMGK4qZTvQXxhIARWBWf3YrJCqxcYURplZM3y5LGpDHw1d7ehFf+PBDjVx9GpT+FMAEd0yrjK8VL6OxdToJH+wnpoikzhX3x4m5OO87faEdjewQtzQGcPtqMrO312LyjFtlnTKii89xIS4qn4PfE0FTnwr2bZuzYUIM5a2pxItcJF8coF/Qi4CGfKt4uxH5oEmTlShWBFTmjsusFOZFyyBQVokfsKSS6K+Mp9W2aPjxqKt8ginoQQsjbhfqyOzj3/XbMm/ASnhr4PEbP3Y+STgJL8u0KIOq6h8PLPsAfGawM8LEmJOvbTTsSYvAarmDF2Fcx4sPlOFnuY+DnlWU2jIupNznZppIedLuL8c2XozB46Ns4XNPJ8fa5ztJ9gfmRaUwhimjXgnCZoX2KpIkrfn3sXckD9eXj5ECfpj/5kM/IKM3lqHvftI97/mPpfmad+mt3up4/Uu5j09A3j6tT3/z0jrL9vNPXTZX37wJWxDC0s7rrzj68NeDPeOqlz/B9kRWRhAcuw3FMGzMcf3pjFi7V0oEOCqym460XR2P64VoOGayWyFWEBA7n0R2F1pmD/XM/wND3VuJSuYv9tmiJmTSruss7MP21ERi95AgKOskOYoWz8nssGj8Cz36wJgNWKTu8DWfw5TvPY+T7s5Fr8XLQevbvkao2bQHpTvlRcm4Lpowcivc2XOVpINm2iJAcaYFOQE750Fp2DB8PG4g35+3AHXMQITq5h0FNMCi1RQk9CzxpZizA9H0C8UgcbnccTn8ckXAcZffbsX13A3LLXTBUO7EruxXHr7bBR+e1eSMIR3o4tpAW6kb5JSsWf2vAlpOtsIWET5MoT07hdSCs1H5hIBfxrCK2ZpTfuYUbtwpgdNGChwAlAlNKx30pmSkNVpJGpL3QKSc+exc8bjci8SgiARfqLq3FRyNH4o9vL8eNej8foNGdCiDuycexlR/gX55+Cwfy6uBL9aDnofA4J+CmgYDAauX7IzFi3AqcLJNgxVPAHqY7uSJQuT1JOyJtVzHvwxF49rWpuN3hQpQFJaM5kh0zaGtF9e2LuHq7BK2ugNjhz/WnWcOjMwe9kCjXBX72OCH8iSCjBK5Xnnoh/Yn59Pr+Z9apV1tlXdL11NeNfuvq99g0nE6n6PTNo8//H81Hl1al+6uDFY/YDFYhWO7ux+gn/hm/+PsBmLBgM85dOoMN88dh4JOD8MGSg6h1BFgLiTkMOLPqS7w6ZCQm769k7+/0NJAcIpNh+G1taK4qRfH1/Zjz3ov416EfIuvwdZTXNsBoccGb0FBzcQu+HPEsRs4/iHwzTQOtbLOa+94QDHh7BYrZZkHC6EfQdA8rp7yFQQOfw8qDZ5FXVoOKZgecIU1so2EhD6Dg1GZMeu4ZjF59CWXOEBviqZNFWBjSCqJwttzFpo9fxvMTl+FwfgvHo6YY6+SsKdJKAWKNRAAVAQef+kHxjDjOEz2PIhEKo/ReC7buNOB2sRdV5U7syO7AiRtmWDuDqMxrQU6OBUWVPtTV+XFufx2WrKnEsVtWdm9gEJSAo4zifW0JAoRoM3cM7XeOYPIbIzF4xFicLGgRK5kMDjTtJsDLMF8vTYumkLQh3NWB/POHsGfzehw5ewV37ufiwKopeHnYixg1fTtKzLQnkvowgu5QA27u+hpP/ObP+HLZBlwrrERlgxlmjzgwg06e8dRexJIxL2DwO4twpMTL00CqB9vjCFxYI00hpXWi5e4efDbqebz21XbUuwLgKA5yYKC6pRJBGO6dwKzXh2Lgi5NwqqBOHqwh+uM/wCrTtwq4FDCo/+n7/xlgpYRHVFwwqHxGo7/UAvi5EjZl3OP3cumXhVuMxJSWbFadOfvw4fA/Y9hzI/Dc62MwfNAzePLPg/D+rCzcNFgRJFsCGWpdTbiUNR8fjf4IC48ImxXHgOIVNQ2JkA23jmzDJ6+9hBGDB+CP//T3+OXf/TOeePpZDHvlLSzbeQwNoSAMOQcw7903Me6bYyjtojPirHBWH8fKL0bh1UkbUGn18NSLyowFzSg5vwsTXh6EJ58aiGeeH4UP5+1DQUOnNNKSnSWE0kv7MeOt1/DplmuoddHSP00DxXmAVEdawYr5mlC4fwZGvPoxFu24ABcFOmPByoCVAi0h8IJOtImXAqyR0ZriXPG0LJaAvd2L80fq8N13FVi5oQL7znWiwRaD1xFB4bVmbFpXhvkrirBwZTGWrK7AoUtmtDgpLrxw4lTGfQYr1We6uwIr0gprT63FiN/9Fr8c8Ca+LzRxLO0ePgdQp5np+ptAWrWFBpS4pxUPTmRh8lsv4OlnBuOZQc9g4MDheHfKSpwtNsJF+/aYFrTP0gdL1UUsGv86Bj41AE89+wpem7AIh28ZOYY8hVL2NlzHmo/fw5jP1uB8pQcRWR4LDWujYuO45mnA8XWz8d7r72DR8XLY2O9NTYHJxYJOBnKj+PR6jPnt3+F/Pv0JjuU3stZLdKZ+UJfSOHvdqc4EfIr/aZVLR8P0AMA82uedlIX0t1Rv9j/qk6fKux85Sn+r0sg++Fl1knmkZVlfT5W/rOcjaVQ7iS4qjaqbni56OvUtT6WXd87nx9LId6o8sRrIo2T/YJUmmmqYqpgqUI3i6fdiGkHaEPlZffjyCxg/YzmyTlzCwX27cfDoGTyot8BHq2JsOE8iEfHCVFuIuzl3UdwqDtdUXtYkcIlYAE1l93Bs7w7s3rUD2fv3I/vgQezeswfb9xzA9fwy2GIx+CwNKLl7E3crO2ALE6OFEXU3ozL/Jq7l1cMRESFT+Iy+ZASaqx2FN8/i0P592LrzEI5cKUK70y+NuQRWGlwdBhTlXMO9+q705mUGq7TNg0609cBRfQJfvP0uxs1chwqnJnye2Ms9Q1cl5EpI6C4AjxwtSRMk8KKVvARMLR4U3O/EnXwrDB1hhCn0cSQJpzmE8mI7cu504sbtLuSXedDmiLFxnfNL94dO0GRf6fuSwuv2xFtxa+dcPP37gXh75nbkdYX4sA/SXsggn2ZYHUMxaEhti6e2mg+ujlrkXj2F/fv2YtfOXTh47BxyK41sQxPhpqWQku0sbEFzcQ5OfH8Q23fuw75jV1Da5GAjPzvZettRm5uDnAe1aHWJXQBUZmbE70FPygVfy20smvQB3v90KS43uxAiYZKRKqheie4oUpoJF3fOxLB/+R1eX/g9is0+ufNAB8SKn9P8K98psFLP+9IwTZN+6Nz3GwVG6t43L/VcfUd3lUY9k+X1AqvHpBGD1V8G0Ef6t2+bVdl8l+3Up9GXr36ru2qD/r/KTz5T8tCrrSo93eWl0jFYCUOsHGl45YXsAlS5TAXTDdNXok/FM0IoNCvzzR1494WX8PGKfXjg0BDTInwAQiyl4mnLEY79sujUWRo1hW0iDVZcB/LTiSBO32saHwNOJ4rQb74nyNWAQJJiPFGedJQUMSx1GNnPaBrRIzQY1oZEW2nfWSqhIR7TEKXoC3wyrPDQZobnE0VEDC06vFOUobRNYbsiQtLKnuatw4n1SzF57rc4V9YKD535x/QhvyQJ4BJIMnSi51IbYLASq3AiThYdjdTNrhYxGV+dwYw0jWSPiNud6OH3wq4nmZP6TTG/rsNVx6t+5FjggQrsWvI5nhr8KnZcruJj7YXWRW1V08DegsOAKPMXjq9U5zgo2H8sRn2sIUb9IcMQ0zvBbKKt5B7SQwsiMQ2aFoPGx8ELDVQxJR2lJc4HVN7yAvDpfaL7Ibo1E5pyj2DB9KlYs/86WoNRPqQkSSGOWSBI+wsh5qvF9qXjMfDpV7D9dh3sFPGCt0JR20hD3ObyWwAAEetJREFUzghEWmB0z1R9fiwdp9F980haeqfrj3T6H5GjXnn0l65vef2l6fOsv/b19+xxbU7XW8l83zr0/f8Tyn9cWdyHuvxUuv9EzElL1xyMjkcnYRdQTN3vXWWkOoEqprtoeT6VDMJ0bStefWYw3pu3DXftdMAkMaGaqqj40QKwqELqEnkJ5haAmdFOer1jwZRCoPte5EP5ZvJm0GJDvJrGqDxlOT+SF3+rOknXZkVEWu3qjvvgbCrE9Vu5yK8383FFDDo6vySVXtGKBwSuoxR4RUPpHiHSUz0F6Kq2ixDQmXqL96oP1HMdyPD3vf9zDK5AHW6d+QEbdx5BA28KF/HHOdCgrp1pplb1S98JaFXdVLnqTs9Fu1Q7BB3pfe+60ntuA0deEI60lDajTWX6iuKIJSMOdFTl4eaNWyjv8PLUjr+XsbpotbAnFUbCZ8TN03uwbvtpdggWg6RwF8nUQUcXVS/J3736qx8aCrr8h2bFtOxLH6KlpGMvWqvnj+MvfT7ye9UPHNaYVr5UrGjSbnjUkR0nwtGKEf+RQjmNnvkU41JFNThrcrB+xUrsOHEdBh95KEvtjbQd1pjkt2kgyOTFgqxvrGqEqld6KiIYX+SnE4I+6anulKbv9Yggqrqou9RUerW9V94ahzGmVb2HyQhiCeHEScc8kbAKYVZ0ybRPn18mja4tsp2ZdH2+5TqI5fe0BpwGXEmHXvVUtBFMRHToIVeSWBhhOpZKZ4sSPKCmbrrv+tZJaoqKtqquvftC5UP11wl237x0/aMHqb55El90kwYVE7SO9lAQRDELYJ7hQxvElJAM7HHNj/+/vWt/1bWowv5FFRlGFCZlVphaHbqgEGqmQhBRdrQkiggEUwShEOxCVNIF0yBCQkwofyqwOJkXvJYeN+fo6eyzPftsb0w8a61nzZr1zrzf++19jvTD/uFj3pl5Zq1n1qxZ77zzvZfNk3gZIlbz+tLFesI0Th0uqjfYfGTLnn905IlNpDzIbHCj8mz/gNsjJ9o2ppXnWO8Y0wn8TR9bmbNyQjviJFhxBYLBlksxu5zSL4Jgac2lfKusHVAaUVO5BDtxpLz4/PPl8LHj5bjt3+jZNslZEhhkYHiGRXvqq7LkYwx5woZOx0HR9p3JQwdYwgmysbeDt3zKpQs2yu2yzvUy0E/5kk99bYn2hYPD+tbO1nfydD20Q9AzwqBvssLVlZReduI+rNA2nvkmOlqe4MsfuE75U27H3i6bmNp+KgfvxdL+y2NR0g/8e6sraAlWIs9kgZe8Cod+o08miJ/HDXbnQBsyrZwmJzVvEzBexvY1rX0Z4UflVcbED0bj25kbrS9lmTVfedayrHeMeQuCFcjUgd6RdxHpO6FwcyNIW7DCcXLoGjRobKR6LJ+hekMfAcGrXFSH7SvQ0CJTHTQbAfn4GwYYTpC5ABMdyXDx3hEfTOMleu3vWq8LZ3+9bFHbsF6/xaeXn+7c1CVn/+wAmq/BqtqOMmtK+6KNTnpe/rV2CzjaOPZdjonhZZzuy6kuBlu1ffSLyoX9oJzKCRiOWcUrblpOOdaePMMYUIb2kdzUX/WFezwZ6H6U2oS8mNr+m8lnsMIYLe7fSlvGvkyP6xiRU8aMymdwe+RE28a08hzrHWPOeLBSI+mgYaN0s+y8/Fw5+vwz5d8bx8pL2zgbwQFtYC2A1IGO7YmhE+hKQy9T9DEINUxvYFAWy+2YAyKpYVjW4KETjks5URYNH8uIY10vzRhr7/rZT22r7xTHhAIP3cDF/p1PjsSXtljNG/Iz9zm+xtt5xrZRlu1VOk5l+vvs/cSU21N3LJ87Rh1/vbbkpJg6GaJMYjSFTWFv9VsNYvgThBNPbC5/3NRApVsdbDPiEcspjyuzyIHHypljSf057feJ8ikr6uZxTKlL0yqzh2FZ1IEy5pm2ZX2ZI0yWkVfOqCcmpnpcdU3rYjvi5COnMuDy7NVOOXX8cPnLb75fvvb5z5ZLL7uq3PaL+8qjR07YYw8caL2PRRzCyPAsr/sHxOFpfXTANtVlUoAYfzQC85l0dRIlrDiSr3LYviePdUvTnoy2DPrjJIFjokz+qJC/zXFnuu4n8Y8L4qecwauVHweqxS/FaV+jzaocytCvzWC8+K8pMOCJ2w2EkwSraDe2XVUW6/Pxahkt74DHidJsVX1P5fML0wwSqJcPUfBfTbmxVPumY6FjVu0COUFX8tEhJ8flfsb8erpWc1LZldOY92pZbVuV2Za1MjgnY//q8Tqcxrpa/cTJv4E6ePrA7c7WkfL3+39Zbr3xmvLx976znPvJL5Y7H3ikvChP7HPJbQ4tlzaMpkjh7FRkS0K/NOOAaSrBLVwigZCQymUS7PRGNGJ4M5nnR22tPOPm8lgx5vpJmXFCuTu49V33T9B3XeUhn+Xl/ES+XTLuFuftOo9jRF2yz2arJ/EBG0/su2F8YGeXtQan2CYfR/2sm5QFvbGOk0b3B+l3Oga676q+B7lopwHXfNaCsgRm67Ou+Gsfo64JtwEn4uZSkRvak19uM6u/58smc2m7RTjOt54+lqW+NP1Yh9NA14Sn4SRY6aY3oiPuj3ql7JzYKEefPVR++91ryznvO1C+fMd95ckTOKvVJTWW4OoMdAwNVj55EbRkolqQskkrOmwyTEj1JgQ7FA3EMhrP0p68xpAJ36vryZiUmX6Ue385QVgmqdlmhd6J/J4d1ijzfkWbdWzk4ydjZeMnQVd5/z8GK/St2pw+yHFA2p70fIw4PrYK9r6HsZkdh2DLHs5tHuSxTPChvfShcxLrye2VUS7Hp4fZddlgbrlO9C/1pVe3SP9A16St4c7SDXMEIT0D4R4evAxte3OjHPrxdeWjHzhQrr753vLYMTwky5vuWueAcHUgpuZQKGeQsmN1EsOxHTFYUocywfL2fabAyP1afIuAreDwJ4G9KZLO0HCifktpYNcnK8Iqy3nPcSJXw8jeE8ssJSdZFbAu6sK+S+adcYIPtulxQhvake1pM+YN03CRfR+umEP/ManhJBLI2vJq1xWcrG0zHpFLIzvI6vE2G4gsOaav5dSCFYNS1kedUUbGmJ0a3j1O0i7wphzKDnnaspEZ60MwdZtHrsDucnx9vEyG5yNPyueYs85T6yc4EBP4+zyKdsr6iLdU5MxhrI765EFmfdYN+0xwWn1G7dSJjXLoR9eVj13w6XLN9+4tj0uwwmtNcLn4un4iPSsPZxUaFoMz+vUwkzKLqiDscliWZE/apnpvP1PekzEpo/7TxGkif41VVK+t9zPysz738MOy1H6Im7Gnc1lHf9A70Unbn26dq2w+x2kFF+lDaA+bTPq1Rpnb1GTuRdak7RL7pr44H9hhHU4DXSNOFqz0LnbdaNWz7KmtjfLIz28oF3/wonL5d+4qj76sdxbLhzvlmbbpysZJhye0pSzne4MLTA9Hw3hqj6/YWcZ1xsHuyck6R/oiboRxLhZABbfCAWc4+eDMYBrbLMaFAJ/7FfKuP5TBrvHmzGhnP4484nGS03DPdczH9rQv65iGz4c5B9YxhRzKYsq6ddPYfobTkEvQ57aMMkO9c45lvePYfo+cerydZ9Yd9A4xaDPilOUt8S9rQ30SrPgPHpeHeO3r9smj5bn7bytXXPSR8uHLri93P/REeXoDXzDGM2/6rqP4teSm46FjUp7zHeIyWD0cO+/pfrCadexoQ9os2ztiYpBPODpJM7YRE+XE44jB8VwdsREzw3sRJ8piSh3rprH9DKehfYI+5x1lhvpFNgI+tt8jpx5v5xm5Jb1DjOAGJ8gsb7fBCv/+4Oyq/7YgxU2Cx8vJww+WO264vLzrbe8o77nwynL97b8rf3tmU77oi3+P2FltG/71St+bawwcSHMzVORgEHI7w05w4Gt7EuSA1MvigAZ9ESucOriJrreAU493wwN9iDwC7x6u6Wfqv+BD+8ZuAdvH1TEXHQNOE/1B34SvjFuahJkH85ATdbI8poYhP+1f4k2dsV2vbKCr6UPo26TfJr+xpeEbGcAt0WW4rGfXstbos8wX2mtpn4m3dNc8zTZ2GYiJrgOqq6ttfVXtk38oN3/p0vLuc84tB77wzXLbXQ+Uf72wVd6QDV69d0qcgXtXthnHDyJKEJMNOVxC2r+C3PgMqdSJARTHyStcuGEnKTjqygr7a+qIdfOXj9vQsNoX24Clft+0M8efcK+byipnGSdu+g852QPNPU4T3omT2oMPYMOOHU68LA6Tge+zipxw7ONjY657ldVOypHfuqv/5jbcZfxWcOIJJXKyvs1ywl5G8g/aAGf1ps43gJW/+odhgM36yEkmKtrwRF39k75a/QjBZMqptWVoT04+jsGWI05uozPHSfmaf6PfPl/rFgbtyzqm9DnIIMbH0MdK//zi+GR9iq9xJq7QVE+tE6z5NPV1g9XOq9tl5+RL5anf31Q+86ELyiXX3lT+/MTL5RjuZpcX8ePubHTWhDMQcJDoABgs1jH1jtUg4xi2i5gUrETnG7ifayZYeSS3CQhe1B840SAcEEnpYMQv5LQqWLmt3EaVkwcr8iaHiA084gRDv8ibzkGn6AUrxdMpNO0Hq/qvT9dOwq1O9MhJ9SuvCSfj6xjkpSxw6gQGd+Zc19hIJzplS5r10besPPLu2dK5Zb3BPxp9kY/r6NuS7dC3yHUVJ21XA2jmHdtHHcDVfD9YMSirvcP8Mf9De2KqLMqtwYq6Koa+wnE2myROxEtqddQnDzLT2d1oeIkZ/g386cFy8fmXlKtu+nV57BgIkby974oOGweoW1YNMzUCZWrwm9RTJ1MzWjPBTH8t24O+pi9vDadlvGOf4jHtxzTUuc1YxzRg/BU1rKspHWcyJm6jKCceVxnadq6O2ICZ4b2ME2UxpY5109B+htPYPlVf5R1kuh2BG5VXGRNb7pFTj3flOdY7xvDEk9v287Nygm2Iq8HKKlGBN2TubL5YDv3wK3LrwtW33Fse+y9WMvWmUL3jGSR6Rs5lOd8jD0wHxwFhuh+s+nbywQ02dJtlewfMfrDyy6Hp5A12WmjLqQy1PSdc18dl7IIuH8s8bsgH3B459bhWnll31TvGnOFgRcX6yI2tnl7dkmD18J1fLeef94lyza33lMdDsMIKSzfYgbd9ARjOfn6tH/JcFvZSKcM1O6/nuTREe1wGWgquIhuXgXjBHy5FTQdSlmX9xES8yulwDzIzxtt3OMll4C45reIN/rFPOO72ifbh5aTxdN6+rNa9JpTjJ5ehwY6ij3sTcSwyhvssxm8RJ5MxywmXXB296LfsX3TqXHfwo1k72ThnHi4n2VIuRZJesV+0QfAdymE/nPdo7AZyMj/6geqe2mmOk9TN9Bv15Bn5Sx+Md8TgmDiXHXzOy8xuzLMddLGMdmJdTMnpLAQd/0It9qBe3SqvHH28PPuPP5U7D36unP3+T5Wv/+T+8rR8wl3fecTApgGrRtwaqXNZzueozTNGBwfnxpmG6f7Kqj27Ts7CwYZus2zvgNlfWe2vrIIPSZAI+d6cHmPiPM0+N83PygkciJNgJS/ax8vj8K7yzY3y0D0/KAevvKScd/bby4VXfKPc/denyhF8YBMCwrNj+8GKA6BnmLr3xHI+FYB8GyCqEyzDtO3HshrcfrCaCUR1jOJYtMfBzgtt2bavOjjhmvEJE3JcXmWo7NPHqce18hzrHWPOcLACYQQpvHcbK6xTm4fLP//4s3L7tw+WG791S/nVgw+X/2zhu27VSCAbf5AR8+xMLsv5UTuWI/UVlTvL7gPDEl7UHbme7rIoe8RpLzqz/Jjfi9ylbaO+fLyujHXxWR/yS2XsBdfTy7K9yO21pVymPczpLqOupenp1g959tYFfY8RiODLI29uHyuvn9os2zuvla3X35TbFXQVZdEWgcN+aANBzCPNZZIPbRwb2gHj7ezSRB6oxldT7Ic8fljBnMKHOC1fUy2TFWKoE348iwXeXV4jTpl/wqFPsrJKOJZ1dRm2iwnys00bWT1c4uD2Rnn8mzzpX4WbG+eGU9Lf1CW+orPDybkEPOSIrFDmONPpGPqh9Tnjcl/II+KGuoJ+waT+RhmUSxzTrH+JLsjy9lFn4OOYVEYeku6ibdQbjyfyKHuB/rX6/NpO+R++yDGqrio6JwAAAABJRU5ErkJggg==;imageBorder=#000000;" vertex="1" parent="1">
          <mxGeometry x="70" y="120" width="299" height="118" as="geometry" />
        </mxCell>
        <mxCell id="VqpM9B68MgUp_H0zUaEF-2" value="" style="shape=table;html=1;whiteSpace=wrap;startSize=0;container=1;collapsible=0;childLayout=tableLayout;" vertex="1" parent="1">
          <mxGeometry x="70" y="300" width="60" height="190" as="geometry" />
        </mxCell>
        <mxCell id="VqpM9B68MgUp_H0zUaEF-3" value="" style="shape=partialRectangle;html=1;whiteSpace=wrap;collapsible=0;dropTarget=0;pointerEvents=0;fillColor=none;top=0;left=0;bottom=0;right=0;points=[[0,0.5],[1,0.5]];portConstraint=eastwest;" vertex="1" parent="VqpM9B68MgUp_H0zUaEF-2">
          <mxGeometry width="60" height="48" as="geometry" />
        </mxCell>
        <mxCell id="VqpM9B68MgUp_H0zUaEF-4" value="Stack" style="shape=partialRectangle;html=1;whiteSpace=wrap;connectable=0;overflow=hidden;fillColor=#f8cecc;top=0;left=0;bottom=0;right=0;strokeColor=#b85450;" vertex="1" parent="VqpM9B68MgUp_H0zUaEF-3">
          <mxGeometry width="60" height="48" as="geometry" />
        </mxCell>
        <mxCell id="VqpM9B68MgUp_H0zUaEF-5" value="" style="shape=partialRectangle;html=1;whiteSpace=wrap;collapsible=0;dropTarget=0;pointerEvents=0;fillColor=none;top=0;left=0;bottom=0;right=0;points=[[0,0.5],[1,0.5]];portConstraint=eastwest;" vertex="1" parent="VqpM9B68MgUp_H0zUaEF-2">
          <mxGeometry y="48" width="60" height="47" as="geometry" />
        </mxCell>
        <mxCell id="VqpM9B68MgUp_H0zUaEF-6" value="Heap" style="shape=partialRectangle;html=1;whiteSpace=wrap;connectable=0;overflow=hidden;fillColor=#e1d5e7;top=0;left=0;bottom=0;right=0;strokeColor=#9673a6;" vertex="1" parent="VqpM9B68MgUp_H0zUaEF-5">
          <mxGeometry width="60" height="47" as="geometry" />
        </mxCell>
        <mxCell id="VqpM9B68MgUp_H0zUaEF-7" value="" style="shape=partialRectangle;html=1;whiteSpace=wrap;collapsible=0;dropTarget=0;pointerEvents=0;fillColor=none;top=0;left=0;bottom=0;right=0;points=[[0,0.5],[1,0.5]];portConstraint=eastwest;" vertex="1" parent="VqpM9B68MgUp_H0zUaEF-2">
          <mxGeometry y="95" width="60" height="48" as="geometry" />
        </mxCell>
        <mxCell id="VqpM9B68MgUp_H0zUaEF-8" value="data" style="shape=partialRectangle;html=1;whiteSpace=wrap;connectable=0;overflow=hidden;fillColor=#dae8fc;top=0;left=0;bottom=0;right=0;strokeColor=#6c8ebf;" vertex="1" parent="VqpM9B68MgUp_H0zUaEF-7">
          <mxGeometry width="60" height="48" as="geometry" />
        </mxCell>
        <mxCell id="VqpM9B68MgUp_H0zUaEF-9" value="" style="shape=partialRectangle;html=1;whiteSpace=wrap;collapsible=0;dropTarget=0;pointerEvents=0;fillColor=none;top=0;left=0;bottom=0;right=0;points=[[0,0.5],[1,0.5]];portConstraint=eastwest;" vertex="1" parent="VqpM9B68MgUp_H0zUaEF-2">
          <mxGeometry y="143" width="60" height="47" as="geometry" />
        </mxCell>
        <mxCell id="VqpM9B68MgUp_H0zUaEF-10" value="text" style="shape=partialRectangle;html=1;whiteSpace=wrap;connectable=0;overflow=hidden;fillColor=#ffe6cc;top=0;left=0;bottom=0;right=0;strokeColor=#d79b00;" vertex="1" parent="VqpM9B68MgUp_H0zUaEF-9">
          <mxGeometry width="60" height="47" as="geometry" />
        </mxCell>
        <mxCell id="VqpM9B68MgUp_H0zUaEF-15" value="" style="shape=table;html=1;whiteSpace=wrap;startSize=0;container=1;collapsible=0;childLayout=tableLayout;fillColor=#dae8fc;strokeColor=#6c8ebf;" vertex="1" parent="1">
          <mxGeometry x="280" y="300" width="240" height="190" as="geometry" />
        </mxCell>
        <mxCell id="VqpM9B68MgUp_H0zUaEF-16" value="" style="shape=partialRectangle;html=1;whiteSpace=wrap;collapsible=0;dropTarget=0;pointerEvents=0;fillColor=none;top=0;left=0;bottom=0;right=0;points=[[0,0.5],[1,0.5]];portConstraint=eastwest;" vertex="1" parent="VqpM9B68MgUp_H0zUaEF-15">
          <mxGeometry width="240" height="27" as="geometry" />
        </mxCell>
        <mxCell id="VqpM9B68MgUp_H0zUaEF-17" value="block" style="shape=partialRectangle;html=1;whiteSpace=wrap;connectable=0;overflow=hidden;fillColor=#d5e8d4;top=0;left=0;bottom=0;right=0;strokeColor=#82b366;" vertex="1" parent="VqpM9B68MgUp_H0zUaEF-16">
          <mxGeometry width="49" height="27" as="geometry" />
        </mxCell>
        <mxCell id="VqpM9B68MgUp_H0zUaEF-18" value="page frame" style="shape=partialRectangle;html=1;whiteSpace=wrap;connectable=0;overflow=hidden;fillColor=#d5e8d4;top=0;left=0;bottom=0;right=0;strokeColor=#82b366;" vertex="1" parent="VqpM9B68MgUp_H0zUaEF-16">
          <mxGeometry x="49" width="71" height="27" as="geometry" />
        </mxCell>
        <mxCell id="VqpM9B68MgUp_H0zUaEF-19" value="P" style="shape=partialRectangle;html=1;whiteSpace=wrap;connectable=0;overflow=hidden;fillColor=#d5e8d4;top=0;left=0;bottom=0;right=0;strokeColor=#82b366;" vertex="1" parent="VqpM9B68MgUp_H0zUaEF-16">
          <mxGeometry x="120" width="50" height="27" as="geometry" />
        </mxCell>
        <mxCell id="VqpM9B68MgUp_H0zUaEF-20" value="D" style="shape=partialRectangle;html=1;whiteSpace=wrap;connectable=0;overflow=hidden;fillColor=#d5e8d4;top=0;left=0;bottom=0;right=0;strokeColor=#82b366;" vertex="1" parent="VqpM9B68MgUp_H0zUaEF-16">
          <mxGeometry x="170" width="70" height="27" as="geometry" />
        </mxCell>
        <mxCell id="VqpM9B68MgUp_H0zUaEF-21" value="" style="shape=partialRectangle;html=1;whiteSpace=wrap;collapsible=0;dropTarget=0;pointerEvents=0;fillColor=none;top=0;left=0;bottom=0;right=0;points=[[0,0.5],[1,0.5]];portConstraint=eastwest;" vertex="1" parent="VqpM9B68MgUp_H0zUaEF-15">
          <mxGeometry y="27" width="240" height="27" as="geometry" />
        </mxCell>
        <mxCell id="VqpM9B68MgUp_H0zUaEF-22" value="1" style="shape=partialRectangle;html=1;whiteSpace=wrap;connectable=0;overflow=hidden;fillColor=none;top=0;left=0;bottom=0;right=0;" vertex="1" parent="VqpM9B68MgUp_H0zUaEF-21">
          <mxGeometry width="49" height="27" as="geometry" />
        </mxCell>
        <mxCell id="VqpM9B68MgUp_H0zUaEF-23" value="" style="shape=partialRectangle;html=1;whiteSpace=wrap;connectable=0;overflow=hidden;fillColor=none;top=0;left=0;bottom=0;right=0;" vertex="1" parent="VqpM9B68MgUp_H0zUaEF-21">
          <mxGeometry x="49" width="71" height="27" as="geometry" />
        </mxCell>
        <mxCell id="VqpM9B68MgUp_H0zUaEF-24" value="0" style="shape=partialRectangle;html=1;whiteSpace=wrap;connectable=0;overflow=hidden;fillColor=none;top=0;left=0;bottom=0;right=0;" vertex="1" parent="VqpM9B68MgUp_H0zUaEF-21">
          <mxGeometry x="120" width="50" height="27" as="geometry" />
        </mxCell>
        <mxCell id="VqpM9B68MgUp_H0zUaEF-25" value="0" style="shape=partialRectangle;html=1;whiteSpace=wrap;connectable=0;overflow=hidden;fillColor=none;top=0;left=0;bottom=0;right=0;" vertex="1" parent="VqpM9B68MgUp_H0zUaEF-21">
          <mxGeometry x="170" width="70" height="27" as="geometry" />
        </mxCell>
        <mxCell id="VqpM9B68MgUp_H0zUaEF-26" value="" style="shape=partialRectangle;html=1;whiteSpace=wrap;collapsible=0;dropTarget=0;pointerEvents=0;fillColor=none;top=0;left=0;bottom=0;right=0;points=[[0,0.5],[1,0.5]];portConstraint=eastwest;" vertex="1" parent="VqpM9B68MgUp_H0zUaEF-15">
          <mxGeometry y="54" width="240" height="27" as="geometry" />
        </mxCell>
        <mxCell id="VqpM9B68MgUp_H0zUaEF-27" value="2" style="shape=partialRectangle;html=1;whiteSpace=wrap;connectable=0;overflow=hidden;fillColor=none;top=0;left=0;bottom=0;right=0;" vertex="1" parent="VqpM9B68MgUp_H0zUaEF-26">
          <mxGeometry width="49" height="27" as="geometry" />
        </mxCell>
        <mxCell id="VqpM9B68MgUp_H0zUaEF-28" value="11" style="shape=partialRectangle;html=1;whiteSpace=wrap;connectable=0;overflow=hidden;fillColor=none;top=0;left=0;bottom=0;right=0;" vertex="1" parent="VqpM9B68MgUp_H0zUaEF-26">
          <mxGeometry x="49" width="71" height="27" as="geometry" />
        </mxCell>
        <mxCell id="VqpM9B68MgUp_H0zUaEF-29" value="1" style="shape=partialRectangle;html=1;whiteSpace=wrap;connectable=0;overflow=hidden;fillColor=none;top=0;left=0;bottom=0;right=0;" vertex="1" parent="VqpM9B68MgUp_H0zUaEF-26">
          <mxGeometry x="120" width="50" height="27" as="geometry" />
        </mxCell>
        <mxCell id="VqpM9B68MgUp_H0zUaEF-30" value="0" style="shape=partialRectangle;html=1;whiteSpace=wrap;connectable=0;overflow=hidden;fillColor=none;top=0;left=0;bottom=0;right=0;" vertex="1" parent="VqpM9B68MgUp_H0zUaEF-26">
          <mxGeometry x="170" width="70" height="27" as="geometry" />
        </mxCell>
        <mxCell id="VqpM9B68MgUp_H0zUaEF-31" value="" style="shape=partialRectangle;html=1;whiteSpace=wrap;collapsible=0;dropTarget=0;pointerEvents=0;fillColor=none;top=0;left=0;bottom=0;right=0;points=[[0,0.5],[1,0.5]];portConstraint=eastwest;" vertex="1" parent="VqpM9B68MgUp_H0zUaEF-15">
          <mxGeometry y="81" width="240" height="28" as="geometry" />
        </mxCell>
        <mxCell id="VqpM9B68MgUp_H0zUaEF-32" value="3" style="shape=partialRectangle;html=1;whiteSpace=wrap;connectable=0;overflow=hidden;fillColor=none;top=0;left=0;bottom=0;right=0;" vertex="1" parent="VqpM9B68MgUp_H0zUaEF-31">
          <mxGeometry width="49" height="28" as="geometry" />
        </mxCell>
        <mxCell id="VqpM9B68MgUp_H0zUaEF-33" value="" style="shape=partialRectangle;html=1;whiteSpace=wrap;connectable=0;overflow=hidden;fillColor=none;top=0;left=0;bottom=0;right=0;" vertex="1" parent="VqpM9B68MgUp_H0zUaEF-31">
          <mxGeometry x="49" width="71" height="28" as="geometry" />
        </mxCell>
        <mxCell id="VqpM9B68MgUp_H0zUaEF-34" value="0" style="shape=partialRectangle;html=1;whiteSpace=wrap;connectable=0;overflow=hidden;fillColor=none;top=0;left=0;bottom=0;right=0;" vertex="1" parent="VqpM9B68MgUp_H0zUaEF-31">
          <mxGeometry x="120" width="50" height="28" as="geometry" />
        </mxCell>
        <mxCell id="VqpM9B68MgUp_H0zUaEF-35" value="0" style="shape=partialRectangle;html=1;whiteSpace=wrap;connectable=0;overflow=hidden;fillColor=none;top=0;left=0;bottom=0;right=0;" vertex="1" parent="VqpM9B68MgUp_H0zUaEF-31">
          <mxGeometry x="170" width="70" height="28" as="geometry" />
        </mxCell>
        <mxCell id="VqpM9B68MgUp_H0zUaEF-36" value="" style="shape=partialRectangle;html=1;whiteSpace=wrap;collapsible=0;dropTarget=0;pointerEvents=0;fillColor=none;top=0;left=0;bottom=0;right=0;points=[[0,0.5],[1,0.5]];portConstraint=eastwest;" vertex="1" parent="VqpM9B68MgUp_H0zUaEF-15">
          <mxGeometry y="109" width="240" height="27" as="geometry" />
        </mxCell>
        <mxCell id="VqpM9B68MgUp_H0zUaEF-37" value="4" style="shape=partialRectangle;html=1;whiteSpace=wrap;connectable=0;overflow=hidden;fillColor=none;top=0;left=0;bottom=0;right=0;" vertex="1" parent="VqpM9B68MgUp_H0zUaEF-36">
          <mxGeometry width="49" height="27" as="geometry" />
        </mxCell>
        <mxCell id="VqpM9B68MgUp_H0zUaEF-38" value="" style="shape=partialRectangle;html=1;whiteSpace=wrap;connectable=0;overflow=hidden;fillColor=none;top=0;left=0;bottom=0;right=0;" vertex="1" parent="VqpM9B68MgUp_H0zUaEF-36">
          <mxGeometry x="49" width="71" height="27" as="geometry" />
        </mxCell>
        <mxCell id="VqpM9B68MgUp_H0zUaEF-39" value="0" style="shape=partialRectangle;html=1;whiteSpace=wrap;connectable=0;overflow=hidden;fillColor=none;top=0;left=0;bottom=0;right=0;" vertex="1" parent="VqpM9B68MgUp_H0zUaEF-36">
          <mxGeometry x="120" width="50" height="27" as="geometry" />
        </mxCell>
        <mxCell id="VqpM9B68MgUp_H0zUaEF-40" value="0" style="shape=partialRectangle;html=1;whiteSpace=wrap;connectable=0;overflow=hidden;fillColor=none;top=0;left=0;bottom=0;right=0;" vertex="1" parent="VqpM9B68MgUp_H0zUaEF-36">
          <mxGeometry x="170" width="70" height="27" as="geometry" />
        </mxCell>
        <mxCell id="VqpM9B68MgUp_H0zUaEF-41" value="" style="shape=partialRectangle;html=1;whiteSpace=wrap;collapsible=0;dropTarget=0;pointerEvents=0;fillColor=none;top=0;left=0;bottom=0;right=0;points=[[0,0.5],[1,0.5]];portConstraint=eastwest;" vertex="1" parent="VqpM9B68MgUp_H0zUaEF-15">
          <mxGeometry y="136" width="240" height="27" as="geometry" />
        </mxCell>
        <mxCell id="VqpM9B68MgUp_H0zUaEF-42" value="5" style="shape=partialRectangle;html=1;whiteSpace=wrap;connectable=0;overflow=hidden;fillColor=none;top=0;left=0;bottom=0;right=0;" vertex="1" parent="VqpM9B68MgUp_H0zUaEF-41">
          <mxGeometry width="49" height="27" as="geometry" />
        </mxCell>
        <mxCell id="VqpM9B68MgUp_H0zUaEF-43" value="" style="shape=partialRectangle;html=1;whiteSpace=wrap;connectable=0;overflow=hidden;fillColor=none;top=0;left=0;bottom=0;right=0;" vertex="1" parent="VqpM9B68MgUp_H0zUaEF-41">
          <mxGeometry x="49" width="71" height="27" as="geometry" />
        </mxCell>
        <mxCell id="VqpM9B68MgUp_H0zUaEF-44" value="0" style="shape=partialRectangle;html=1;whiteSpace=wrap;connectable=0;overflow=hidden;fillColor=none;top=0;left=0;bottom=0;right=0;" vertex="1" parent="VqpM9B68MgUp_H0zUaEF-41">
          <mxGeometry x="120" width="50" height="27" as="geometry" />
        </mxCell>
        <mxCell id="VqpM9B68MgUp_H0zUaEF-45" value="0" style="shape=partialRectangle;html=1;whiteSpace=wrap;connectable=0;overflow=hidden;fillColor=none;top=0;left=0;bottom=0;right=0;" vertex="1" parent="VqpM9B68MgUp_H0zUaEF-41">
          <mxGeometry x="170" width="70" height="27" as="geometry" />
        </mxCell>
        <mxCell id="VqpM9B68MgUp_H0zUaEF-46" value="" style="shape=partialRectangle;html=1;whiteSpace=wrap;collapsible=0;dropTarget=0;pointerEvents=0;fillColor=none;top=0;left=0;bottom=0;right=0;points=[[0,0.5],[1,0.5]];portConstraint=eastwest;" vertex="1" parent="VqpM9B68MgUp_H0zUaEF-15">
          <mxGeometry y="163" width="240" height="27" as="geometry" />
        </mxCell>
        <mxCell id="VqpM9B68MgUp_H0zUaEF-47" value="6" style="shape=partialRectangle;html=1;whiteSpace=wrap;connectable=0;overflow=hidden;fillColor=none;top=0;left=0;bottom=0;right=0;" vertex="1" parent="VqpM9B68MgUp_H0zUaEF-46">
          <mxGeometry width="49" height="27" as="geometry" />
        </mxCell>
        <mxCell id="VqpM9B68MgUp_H0zUaEF-48" value="" style="shape=partialRectangle;html=1;whiteSpace=wrap;connectable=0;overflow=hidden;fillColor=none;top=0;left=0;bottom=0;right=0;" vertex="1" parent="VqpM9B68MgUp_H0zUaEF-46">
          <mxGeometry x="49" width="71" height="27" as="geometry" />
        </mxCell>
        <mxCell id="VqpM9B68MgUp_H0zUaEF-49" value="0" style="shape=partialRectangle;html=1;whiteSpace=wrap;connectable=0;overflow=hidden;fillColor=none;top=0;left=0;bottom=0;right=0;" vertex="1" parent="VqpM9B68MgUp_H0zUaEF-46">
          <mxGeometry x="120" width="50" height="27" as="geometry" />
        </mxCell>
        <mxCell id="VqpM9B68MgUp_H0zUaEF-50" value="0" style="shape=partialRectangle;html=1;whiteSpace=wrap;connectable=0;overflow=hidden;fillColor=none;top=0;left=0;bottom=0;right=0;" vertex="1" parent="VqpM9B68MgUp_H0zUaEF-46">
          <mxGeometry x="170" width="70" height="27" as="geometry" />
        </mxCell>
        <mxCell id="VqpM9B68MgUp_H0zUaEF-56" value="OS" style="rounded=0;whiteSpace=wrap;html=1;fillColor=#f8cecc;strokeColor=#b85450;" vertex="1" parent="1">
          <mxGeometry x="430" y="120" width="90" height="50" as="geometry" />
        </mxCell>
        <mxCell id="VqpM9B68MgUp_H0zUaEF-57" value="MMU" style="rounded=0;whiteSpace=wrap;html=1;fillColor=#1ba1e2;strokeColor=#006EAF;fontColor=#ffffff;" vertex="1" parent="1">
          <mxGeometry x="430" y="238" width="90" height="50" as="geometry" />
        </mxCell>
        <mxCell id="VqpM9B68MgUp_H0zUaEF-58" value="Processor" style="rounded=0;whiteSpace=wrap;html=1;fillColor=#e1d5e7;strokeColor=#9673a6;" vertex="1" parent="1">
          <mxGeometry x="430" y="180" width="90" height="50" as="geometry" />
        </mxCell>
        <mxCell id="VqpM9B68MgUp_H0zUaEF-59" value="" style="shape=table;html=1;whiteSpace=wrap;startSize=0;container=1;collapsible=0;childLayout=tableLayout;fillColor=#bac8d3;strokeColor=#23445d;" vertex="1" parent="1">
          <mxGeometry x="570" y="120" width="80" height="370" as="geometry" />
        </mxCell>
        <mxCell id="VqpM9B68MgUp_H0zUaEF-60" value="" style="shape=partialRectangle;html=1;whiteSpace=wrap;collapsible=0;dropTarget=0;pointerEvents=0;fillColor=none;top=0;left=0;bottom=0;right=0;points=[[0,0.5],[1,0.5]];portConstraint=eastwest;" vertex="1" parent="VqpM9B68MgUp_H0zUaEF-59">
          <mxGeometry width="80" height="26" as="geometry" />
        </mxCell>
        <mxCell id="VqpM9B68MgUp_H0zUaEF-61" value="" style="shape=partialRectangle;html=1;whiteSpace=wrap;connectable=0;overflow=hidden;fillColor=none;top=0;left=0;bottom=0;right=0;" vertex="1" parent="VqpM9B68MgUp_H0zUaEF-60">
          <mxGeometry width="80" height="26" as="geometry" />
        </mxCell>
        <mxCell id="VqpM9B68MgUp_H0zUaEF-62" value="" style="shape=partialRectangle;html=1;whiteSpace=wrap;collapsible=0;dropTarget=0;pointerEvents=0;fillColor=none;top=0;left=0;bottom=0;right=0;points=[[0,0.5],[1,0.5]];portConstraint=eastwest;" vertex="1" parent="VqpM9B68MgUp_H0zUaEF-59">
          <mxGeometry y="26" width="80" height="27" as="geometry" />
        </mxCell>
        <mxCell id="VqpM9B68MgUp_H0zUaEF-63" value="" style="shape=partialRectangle;html=1;whiteSpace=wrap;connectable=0;overflow=hidden;fillColor=none;top=0;left=0;bottom=0;right=0;" vertex="1" parent="VqpM9B68MgUp_H0zUaEF-62">
          <mxGeometry width="80" height="27" as="geometry" />
        </mxCell>
        <mxCell id="VqpM9B68MgUp_H0zUaEF-64" value="" style="shape=partialRectangle;html=1;whiteSpace=wrap;collapsible=0;dropTarget=0;pointerEvents=0;fillColor=none;top=0;left=0;bottom=0;right=0;points=[[0,0.5],[1,0.5]];portConstraint=eastwest;" vertex="1" parent="VqpM9B68MgUp_H0zUaEF-59">
          <mxGeometry y="53" width="80" height="26" as="geometry" />
        </mxCell>
        <mxCell id="VqpM9B68MgUp_H0zUaEF-65" value="" style="shape=partialRectangle;html=1;whiteSpace=wrap;connectable=0;overflow=hidden;fillColor=none;top=0;left=0;bottom=0;right=0;" vertex="1" parent="VqpM9B68MgUp_H0zUaEF-64">
          <mxGeometry width="80" height="26" as="geometry" />
        </mxCell>
        <mxCell id="VqpM9B68MgUp_H0zUaEF-66" value="" style="shape=partialRectangle;html=1;whiteSpace=wrap;collapsible=0;dropTarget=0;pointerEvents=0;fillColor=none;top=0;left=0;bottom=0;right=0;points=[[0,0.5],[1,0.5]];portConstraint=eastwest;" vertex="1" parent="VqpM9B68MgUp_H0zUaEF-59">
          <mxGeometry y="79" width="80" height="27" as="geometry" />
        </mxCell>
        <mxCell id="VqpM9B68MgUp_H0zUaEF-67" value="" style="shape=partialRectangle;html=1;whiteSpace=wrap;connectable=0;overflow=hidden;fillColor=none;top=0;left=0;bottom=0;right=0;" vertex="1" parent="VqpM9B68MgUp_H0zUaEF-66">
          <mxGeometry width="80" height="27" as="geometry" />
        </mxCell>
        <mxCell id="VqpM9B68MgUp_H0zUaEF-68" value="" style="shape=partialRectangle;html=1;whiteSpace=wrap;collapsible=0;dropTarget=0;pointerEvents=0;fillColor=none;top=0;left=0;bottom=0;right=0;points=[[0,0.5],[1,0.5]];portConstraint=eastwest;" vertex="1" parent="VqpM9B68MgUp_H0zUaEF-59">
          <mxGeometry y="106" width="80" height="26" as="geometry" />
        </mxCell>
        <mxCell id="VqpM9B68MgUp_H0zUaEF-69" value="" style="shape=partialRectangle;html=1;whiteSpace=wrap;connectable=0;overflow=hidden;fillColor=none;top=0;left=0;bottom=0;right=0;" vertex="1" parent="VqpM9B68MgUp_H0zUaEF-68">
          <mxGeometry width="80" height="26" as="geometry" />
        </mxCell>
        <mxCell id="VqpM9B68MgUp_H0zUaEF-70" value="" style="shape=partialRectangle;html=1;whiteSpace=wrap;collapsible=0;dropTarget=0;pointerEvents=0;fillColor=none;top=0;left=0;bottom=0;right=0;points=[[0,0.5],[1,0.5]];portConstraint=eastwest;" vertex="1" parent="VqpM9B68MgUp_H0zUaEF-59">
          <mxGeometry y="132" width="80" height="27" as="geometry" />
        </mxCell>
        <mxCell id="VqpM9B68MgUp_H0zUaEF-71" value="" style="shape=partialRectangle;html=1;whiteSpace=wrap;connectable=0;overflow=hidden;fillColor=none;top=0;left=0;bottom=0;right=0;" vertex="1" parent="VqpM9B68MgUp_H0zUaEF-70">
          <mxGeometry width="80" height="27" as="geometry" />
        </mxCell>
        <mxCell id="VqpM9B68MgUp_H0zUaEF-72" value="" style="shape=partialRectangle;html=1;whiteSpace=wrap;collapsible=0;dropTarget=0;pointerEvents=0;fillColor=none;top=0;left=0;bottom=0;right=0;points=[[0,0.5],[1,0.5]];portConstraint=eastwest;" vertex="1" parent="VqpM9B68MgUp_H0zUaEF-59">
          <mxGeometry y="159" width="80" height="26" as="geometry" />
        </mxCell>
        <mxCell id="VqpM9B68MgUp_H0zUaEF-73" value="" style="shape=partialRectangle;html=1;whiteSpace=wrap;connectable=0;overflow=hidden;fillColor=none;top=0;left=0;bottom=0;right=0;" vertex="1" parent="VqpM9B68MgUp_H0zUaEF-72">
          <mxGeometry width="80" height="26" as="geometry" />
        </mxCell>
        <mxCell id="VqpM9B68MgUp_H0zUaEF-74" value="" style="shape=partialRectangle;html=1;whiteSpace=wrap;collapsible=0;dropTarget=0;pointerEvents=0;fillColor=none;top=0;left=0;bottom=0;right=0;points=[[0,0.5],[1,0.5]];portConstraint=eastwest;" vertex="1" parent="VqpM9B68MgUp_H0zUaEF-59">
          <mxGeometry y="185" width="80" height="26" as="geometry" />
        </mxCell>
        <mxCell id="VqpM9B68MgUp_H0zUaEF-75" value="" style="shape=partialRectangle;html=1;whiteSpace=wrap;connectable=0;overflow=hidden;fillColor=none;top=0;left=0;bottom=0;right=0;" vertex="1" parent="VqpM9B68MgUp_H0zUaEF-74">
          <mxGeometry width="80" height="26" as="geometry" />
        </mxCell>
        <mxCell id="VqpM9B68MgUp_H0zUaEF-76" value="" style="shape=partialRectangle;html=1;whiteSpace=wrap;collapsible=0;dropTarget=0;pointerEvents=0;fillColor=none;top=0;left=0;bottom=0;right=0;points=[[0,0.5],[1,0.5]];portConstraint=eastwest;" vertex="1" parent="VqpM9B68MgUp_H0zUaEF-59">
          <mxGeometry y="211" width="80" height="27" as="geometry" />
        </mxCell>
        <mxCell id="VqpM9B68MgUp_H0zUaEF-77" value="" style="shape=partialRectangle;html=1;whiteSpace=wrap;connectable=0;overflow=hidden;fillColor=none;top=0;left=0;bottom=0;right=0;" vertex="1" parent="VqpM9B68MgUp_H0zUaEF-76">
          <mxGeometry width="80" height="27" as="geometry" />
        </mxCell>
        <mxCell id="VqpM9B68MgUp_H0zUaEF-78" value="" style="shape=partialRectangle;html=1;whiteSpace=wrap;collapsible=0;dropTarget=0;pointerEvents=0;fillColor=none;top=0;left=0;bottom=0;right=0;points=[[0,0.5],[1,0.5]];portConstraint=eastwest;" vertex="1" parent="VqpM9B68MgUp_H0zUaEF-59">
          <mxGeometry y="238" width="80" height="26" as="geometry" />
        </mxCell>
        <mxCell id="VqpM9B68MgUp_H0zUaEF-79" value="" style="shape=partialRectangle;html=1;whiteSpace=wrap;connectable=0;overflow=hidden;fillColor=none;top=0;left=0;bottom=0;right=0;" vertex="1" parent="VqpM9B68MgUp_H0zUaEF-78">
          <mxGeometry width="80" height="26" as="geometry" />
        </mxCell>
        <mxCell id="VqpM9B68MgUp_H0zUaEF-80" value="" style="shape=partialRectangle;html=1;whiteSpace=wrap;collapsible=0;dropTarget=0;pointerEvents=0;fillColor=none;top=0;left=0;bottom=0;right=0;points=[[0,0.5],[1,0.5]];portConstraint=eastwest;" vertex="1" parent="VqpM9B68MgUp_H0zUaEF-59">
          <mxGeometry y="264" width="80" height="27" as="geometry" />
        </mxCell>
        <mxCell id="VqpM9B68MgUp_H0zUaEF-81" value="" style="shape=partialRectangle;html=1;whiteSpace=wrap;connectable=0;overflow=hidden;fillColor=#fad7ac;top=0;left=0;bottom=0;right=0;strokeColor=#b46504;" vertex="1" parent="VqpM9B68MgUp_H0zUaEF-80">
          <mxGeometry width="80" height="27" as="geometry" />
        </mxCell>
        <mxCell id="VqpM9B68MgUp_H0zUaEF-82" value="" style="shape=partialRectangle;html=1;whiteSpace=wrap;collapsible=0;dropTarget=0;pointerEvents=0;fillColor=none;top=0;left=0;bottom=0;right=0;points=[[0,0.5],[1,0.5]];portConstraint=eastwest;" vertex="1" parent="VqpM9B68MgUp_H0zUaEF-59">
          <mxGeometry y="291" width="80" height="26" as="geometry" />
        </mxCell>
        <mxCell id="VqpM9B68MgUp_H0zUaEF-83" value="" style="shape=partialRectangle;html=1;whiteSpace=wrap;connectable=0;overflow=hidden;fillColor=none;top=0;left=0;bottom=0;right=0;" vertex="1" parent="VqpM9B68MgUp_H0zUaEF-82">
          <mxGeometry width="80" height="26" as="geometry" />
        </mxCell>
        <mxCell id="VqpM9B68MgUp_H0zUaEF-84" value="" style="shape=partialRectangle;html=1;whiteSpace=wrap;collapsible=0;dropTarget=0;pointerEvents=0;fillColor=none;top=0;left=0;bottom=0;right=0;points=[[0,0.5],[1,0.5]];portConstraint=eastwest;" vertex="1" parent="VqpM9B68MgUp_H0zUaEF-59">
          <mxGeometry y="317" width="80" height="27" as="geometry" />
        </mxCell>
        <mxCell id="VqpM9B68MgUp_H0zUaEF-85" value="" style="shape=partialRectangle;html=1;whiteSpace=wrap;connectable=0;overflow=hidden;fillColor=none;top=0;left=0;bottom=0;right=0;" vertex="1" parent="VqpM9B68MgUp_H0zUaEF-84">
          <mxGeometry width="80" height="27" as="geometry" />
        </mxCell>
        <mxCell id="VqpM9B68MgUp_H0zUaEF-86" value="" style="shape=partialRectangle;html=1;whiteSpace=wrap;collapsible=0;dropTarget=0;pointerEvents=0;fillColor=none;top=0;left=0;bottom=0;right=0;points=[[0,0.5],[1,0.5]];portConstraint=eastwest;" vertex="1" parent="VqpM9B68MgUp_H0zUaEF-59">
          <mxGeometry y="344" width="80" height="26" as="geometry" />
        </mxCell>
        <mxCell id="VqpM9B68MgUp_H0zUaEF-87" value="" style="shape=partialRectangle;html=1;whiteSpace=wrap;connectable=0;overflow=hidden;fillColor=none;top=0;left=0;bottom=0;right=0;" vertex="1" parent="VqpM9B68MgUp_H0zUaEF-86">
          <mxGeometry width="80" height="26" as="geometry" />
        </mxCell>
        <mxCell id="2" value="&lt;font style=&quot;font-size: 16px&quot;&gt;RAM&lt;/font&gt;" style="text;html=1;align=center;verticalAlign=middle;resizable=0;points=[];autosize=1;" vertex="1" parent="1">
          <mxGeometry x="585" y="90" width="50" height="20" as="geometry" />
        </mxCell>
      </root>
    </mxGraphModel>
  </diagram>
</mxfile>
